%TF.GenerationSoftware,KiCad,Pcbnew,(6.0.1)*%
%TF.CreationDate,2022-02-23T01:52:35+01:00*%
%TF.ProjectId,stm32myPill,73746d33-326d-4795-9069-6c6c2e6b6963,rev?*%
%TF.SameCoordinates,Original*%
%TF.FileFunction,Copper,L2,Bot*%
%TF.FilePolarity,Positive*%
%FSLAX46Y46*%
G04 Gerber Fmt 4.6, Leading zero omitted, Abs format (unit mm)*
G04 Created by KiCad (PCBNEW (6.0.1)) date 2022-02-23 01:52:35*
%MOMM*%
%LPD*%
G01*
G04 APERTURE LIST*
%TA.AperFunction,ComponentPad*%
%ADD10O,2.000000X1.450000*%
%TD*%
%TA.AperFunction,ComponentPad*%
%ADD11O,1.800000X1.150000*%
%TD*%
%TA.AperFunction,ComponentPad*%
%ADD12R,1.700000X1.700000*%
%TD*%
%TA.AperFunction,ComponentPad*%
%ADD13O,1.700000X1.700000*%
%TD*%
%TA.AperFunction,ViaPad*%
%ADD14C,0.700000*%
%TD*%
%TA.AperFunction,ViaPad*%
%ADD15C,0.800000*%
%TD*%
%TA.AperFunction,Conductor*%
%ADD16C,0.500000*%
%TD*%
G04 APERTURE END LIST*
D10*
%TO.P,J1,6,Shield*%
%TO.N,N/C*%
X115295000Y-75020000D03*
X115295000Y-82470000D03*
D11*
X119095000Y-82620000D03*
X119095000Y-74870000D03*
%TD*%
D12*
%TO.P,J4,1,Pin_1*%
%TO.N,GND*%
X101080000Y-94750000D03*
D13*
%TO.P,J4,2,Pin_2*%
%TO.N,/I2C2_SDA*%
X98540000Y-94750000D03*
%TO.P,J4,3,Pin_3*%
%TO.N,/I2C2_SCL*%
X96000000Y-94750000D03*
%TO.P,J4,4,Pin_4*%
%TO.N,+3V3*%
X93460000Y-94750000D03*
%TD*%
D12*
%TO.P,J3,1,Pin_1*%
%TO.N,GND*%
X103210000Y-65000000D03*
D13*
%TO.P,J3,2,Pin_2*%
%TO.N,/SWCLK*%
X105750000Y-65000000D03*
%TO.P,J3,3,Pin_3*%
%TO.N,/SWDIO*%
X108290000Y-65000000D03*
%TO.P,J3,4,Pin_4*%
%TO.N,+3V3*%
X110830000Y-65000000D03*
%TD*%
D12*
%TO.P,J2,1,Pin_1*%
%TO.N,GND*%
X90120000Y-65000000D03*
D13*
%TO.P,J2,2,Pin_2*%
%TO.N,/USART1_RX*%
X92660000Y-65000000D03*
%TO.P,J2,3,Pin_3*%
%TO.N,/USART1_TX*%
X95200000Y-65000000D03*
%TO.P,J2,4,Pin_4*%
%TO.N,+3V3*%
X97740000Y-65000000D03*
%TD*%
D14*
%TO.N,GND*%
X100200000Y-82900000D03*
X90000000Y-79400000D03*
X92000000Y-75400000D03*
X112700000Y-87900000D03*
X108600000Y-83100000D03*
X95700000Y-77100000D03*
D15*
X116200000Y-87200000D03*
D14*
X84300000Y-71300000D03*
X97000000Y-86100000D03*
X108600000Y-82200000D03*
X110500000Y-87400000D03*
X90100000Y-77100000D03*
X89200000Y-83600000D03*
X109500000Y-87400000D03*
X85500000Y-81400000D03*
X113300000Y-77500000D03*
X87200000Y-76300000D03*
X89200000Y-86800000D03*
X105000000Y-78000000D03*
X90820413Y-80959065D03*
D15*
%TO.N,+3V3*%
X97766449Y-89195747D03*
X94454500Y-91787301D03*
X96000000Y-91800000D03*
X99800000Y-89200000D03*
%TD*%
D16*
%TO.N,+3V3*%
X94467199Y-91800000D02*
X94454500Y-91787301D01*
X97770702Y-89200000D02*
X97766449Y-89195747D01*
X99800000Y-89200000D02*
X97770702Y-89200000D01*
X96000000Y-91800000D02*
X94467199Y-91800000D01*
%TD*%
%TA.AperFunction,Conductor*%
%TO.N,GND*%
G36*
X121055039Y-62803685D02*
G01*
X121100794Y-62856489D01*
X121112000Y-62908000D01*
X121112000Y-96858000D01*
X121092315Y-96925039D01*
X121039511Y-96970794D01*
X120988000Y-96982000D01*
X79418000Y-96982000D01*
X79350961Y-96962315D01*
X79305206Y-96909511D01*
X79294000Y-96858000D01*
X79294000Y-93913789D01*
X81145996Y-93913789D01*
X81154913Y-94151295D01*
X81155990Y-94156430D01*
X81155991Y-94156435D01*
X81193653Y-94335931D01*
X81203719Y-94383904D01*
X81291020Y-94604963D01*
X81293741Y-94609447D01*
X81293743Y-94609451D01*
X81359247Y-94717398D01*
X81414319Y-94808153D01*
X81570090Y-94987664D01*
X81753880Y-95138362D01*
X81758441Y-95140958D01*
X81758442Y-95140959D01*
X81955875Y-95253345D01*
X81955880Y-95253347D01*
X81960433Y-95255939D01*
X82183844Y-95337034D01*
X82417725Y-95379326D01*
X82442619Y-95380500D01*
X82609680Y-95380500D01*
X82612296Y-95380278D01*
X82612297Y-95380278D01*
X82781590Y-95365913D01*
X82786823Y-95365469D01*
X83016874Y-95305760D01*
X83233576Y-95208143D01*
X83430732Y-95075409D01*
X83602705Y-94911355D01*
X83744579Y-94720670D01*
X83745045Y-94719754D01*
X92304967Y-94719754D01*
X92305338Y-94725416D01*
X92305338Y-94725420D01*
X92309488Y-94788736D01*
X92318796Y-94930749D01*
X92370845Y-95135690D01*
X92373219Y-95140841D01*
X92373221Y-95140845D01*
X92456991Y-95322556D01*
X92459369Y-95327714D01*
X92581405Y-95500391D01*
X92732865Y-95647937D01*
X92737588Y-95651093D01*
X92737592Y-95651096D01*
X92808663Y-95698584D01*
X92908677Y-95765411D01*
X93102953Y-95848878D01*
X93166283Y-95863208D01*
X93303638Y-95894289D01*
X93303642Y-95894290D01*
X93309186Y-95895544D01*
X93435651Y-95900513D01*
X93514789Y-95903623D01*
X93514791Y-95903623D01*
X93520470Y-95903846D01*
X93526090Y-95903031D01*
X93526092Y-95903031D01*
X93724103Y-95874320D01*
X93724104Y-95874320D01*
X93729730Y-95873504D01*
X93808890Y-95846633D01*
X93924565Y-95807367D01*
X93924568Y-95807366D01*
X93929955Y-95805537D01*
X93934916Y-95802759D01*
X93934922Y-95802756D01*
X94090275Y-95715753D01*
X94114442Y-95702219D01*
X94277012Y-95567012D01*
X94280644Y-95562645D01*
X94408584Y-95408813D01*
X94408585Y-95408811D01*
X94412219Y-95404442D01*
X94496838Y-95253345D01*
X94512756Y-95224922D01*
X94512759Y-95224916D01*
X94515537Y-95219955D01*
X94542353Y-95140959D01*
X94581675Y-95025118D01*
X94583504Y-95019730D01*
X94585954Y-95002831D01*
X94607820Y-94852033D01*
X94636921Y-94788512D01*
X94690225Y-94754346D01*
X94770974Y-94754346D01*
X94824347Y-94788736D01*
X94853296Y-94852327D01*
X94854271Y-94861707D01*
X94858796Y-94930749D01*
X94910845Y-95135690D01*
X94913219Y-95140841D01*
X94913221Y-95140845D01*
X94996991Y-95322556D01*
X94999369Y-95327714D01*
X95121405Y-95500391D01*
X95272865Y-95647937D01*
X95277588Y-95651093D01*
X95277592Y-95651096D01*
X95348663Y-95698584D01*
X95448677Y-95765411D01*
X95642953Y-95848878D01*
X95706283Y-95863208D01*
X95843638Y-95894289D01*
X95843642Y-95894290D01*
X95849186Y-95895544D01*
X95975651Y-95900513D01*
X96054789Y-95903623D01*
X96054791Y-95903623D01*
X96060470Y-95903846D01*
X96066090Y-95903031D01*
X96066092Y-95903031D01*
X96264103Y-95874320D01*
X96264104Y-95874320D01*
X96269730Y-95873504D01*
X96348890Y-95846633D01*
X96464565Y-95807367D01*
X96464568Y-95807366D01*
X96469955Y-95805537D01*
X96474916Y-95802759D01*
X96474922Y-95802756D01*
X96630275Y-95715753D01*
X96654442Y-95702219D01*
X96817012Y-95567012D01*
X96820644Y-95562645D01*
X96948584Y-95408813D01*
X96948585Y-95408811D01*
X96952219Y-95404442D01*
X97036838Y-95253345D01*
X97052756Y-95224922D01*
X97052759Y-95224916D01*
X97055537Y-95219955D01*
X97082353Y-95140959D01*
X97121675Y-95025118D01*
X97123504Y-95019730D01*
X97125954Y-95002831D01*
X97147820Y-94852033D01*
X97176921Y-94788512D01*
X97230225Y-94754346D01*
X97310974Y-94754346D01*
X97364347Y-94788736D01*
X97393296Y-94852327D01*
X97394271Y-94861707D01*
X97398796Y-94930749D01*
X97450845Y-95135690D01*
X97453219Y-95140841D01*
X97453221Y-95140845D01*
X97536991Y-95322556D01*
X97539369Y-95327714D01*
X97661405Y-95500391D01*
X97812865Y-95647937D01*
X97817588Y-95651093D01*
X97817592Y-95651096D01*
X97888663Y-95698584D01*
X97988677Y-95765411D01*
X98182953Y-95848878D01*
X98246283Y-95863208D01*
X98383638Y-95894289D01*
X98383642Y-95894290D01*
X98389186Y-95895544D01*
X98515651Y-95900513D01*
X98594789Y-95903623D01*
X98594791Y-95903623D01*
X98600470Y-95903846D01*
X98606090Y-95903031D01*
X98606092Y-95903031D01*
X98804103Y-95874320D01*
X98804104Y-95874320D01*
X98809730Y-95873504D01*
X98888890Y-95846633D01*
X99004565Y-95807367D01*
X99004568Y-95807366D01*
X99009955Y-95805537D01*
X99014916Y-95802759D01*
X99014922Y-95802756D01*
X99170275Y-95715753D01*
X99194442Y-95702219D01*
X99357012Y-95567012D01*
X99360644Y-95562645D01*
X99488584Y-95408813D01*
X99488585Y-95408811D01*
X99492219Y-95404442D01*
X99497812Y-95394455D01*
X99547743Y-95345583D01*
X99616171Y-95331464D01*
X99681370Y-95356581D01*
X99722640Y-95412960D01*
X99730000Y-95455046D01*
X99730000Y-95643972D01*
X99730363Y-95650669D01*
X99735803Y-95700744D01*
X99739371Y-95715753D01*
X99783817Y-95834311D01*
X99792212Y-95849646D01*
X99867516Y-95950124D01*
X99879876Y-95962484D01*
X99980354Y-96037788D01*
X99995689Y-96046183D01*
X100114247Y-96090629D01*
X100129256Y-96094197D01*
X100179331Y-96099637D01*
X100186028Y-96100000D01*
X100812170Y-96100000D01*
X100827169Y-96095596D01*
X100828356Y-96094226D01*
X100830000Y-96086668D01*
X100830000Y-96082170D01*
X101330000Y-96082170D01*
X101334404Y-96097169D01*
X101335774Y-96098356D01*
X101343332Y-96100000D01*
X101973972Y-96100000D01*
X101980669Y-96099637D01*
X102030744Y-96094197D01*
X102045753Y-96090629D01*
X102164311Y-96046183D01*
X102179646Y-96037788D01*
X102280124Y-95962484D01*
X102292484Y-95950124D01*
X102367788Y-95849646D01*
X102376183Y-95834311D01*
X102420629Y-95715753D01*
X102424197Y-95700744D01*
X102429637Y-95650669D01*
X102430000Y-95643972D01*
X102430000Y-95017830D01*
X102425596Y-95002831D01*
X102424226Y-95001644D01*
X102416668Y-95000000D01*
X101347830Y-95000000D01*
X101332831Y-95004404D01*
X101331644Y-95005774D01*
X101330000Y-95013332D01*
X101330000Y-96082170D01*
X100830000Y-96082170D01*
X100830000Y-94482170D01*
X101330000Y-94482170D01*
X101334404Y-94497169D01*
X101335774Y-94498356D01*
X101343332Y-94500000D01*
X102412170Y-94500000D01*
X102427169Y-94495596D01*
X102428356Y-94494226D01*
X102430000Y-94486668D01*
X102430000Y-93913789D01*
X116705996Y-93913789D01*
X116714913Y-94151295D01*
X116715990Y-94156430D01*
X116715991Y-94156435D01*
X116753653Y-94335931D01*
X116763719Y-94383904D01*
X116851020Y-94604963D01*
X116853741Y-94609447D01*
X116853743Y-94609451D01*
X116919247Y-94717398D01*
X116974319Y-94808153D01*
X117130090Y-94987664D01*
X117313880Y-95138362D01*
X117318441Y-95140958D01*
X117318442Y-95140959D01*
X117515875Y-95253345D01*
X117515880Y-95253347D01*
X117520433Y-95255939D01*
X117743844Y-95337034D01*
X117977725Y-95379326D01*
X118002619Y-95380500D01*
X118169680Y-95380500D01*
X118172296Y-95380278D01*
X118172297Y-95380278D01*
X118341590Y-95365913D01*
X118346823Y-95365469D01*
X118576874Y-95305760D01*
X118793576Y-95208143D01*
X118990732Y-95075409D01*
X119162705Y-94911355D01*
X119304579Y-94720670D01*
X119340556Y-94649909D01*
X119409913Y-94513493D01*
X119409915Y-94513488D01*
X119412295Y-94508807D01*
X119419170Y-94486668D01*
X119481215Y-94286848D01*
X119482775Y-94281824D01*
X119501343Y-94141733D01*
X119513315Y-94051412D01*
X119513315Y-94051408D01*
X119514004Y-94046211D01*
X119505087Y-93808705D01*
X119503105Y-93799256D01*
X119457361Y-93581242D01*
X119457360Y-93581239D01*
X119456281Y-93576096D01*
X119368980Y-93355037D01*
X119301607Y-93244009D01*
X119248408Y-93156341D01*
X119245681Y-93151847D01*
X119089910Y-92972336D01*
X118906120Y-92821638D01*
X118788687Y-92754791D01*
X118704125Y-92706655D01*
X118704120Y-92706653D01*
X118699567Y-92704061D01*
X118476156Y-92622966D01*
X118242275Y-92580674D01*
X118217381Y-92579500D01*
X118050320Y-92579500D01*
X118047704Y-92579722D01*
X118047703Y-92579722D01*
X118036484Y-92580674D01*
X117873177Y-92594531D01*
X117643126Y-92654240D01*
X117426424Y-92751857D01*
X117229268Y-92884591D01*
X117057295Y-93048645D01*
X116915421Y-93239330D01*
X116913042Y-93244008D01*
X116913042Y-93244009D01*
X116824668Y-93417830D01*
X116807705Y-93451193D01*
X116806146Y-93456213D01*
X116806145Y-93456216D01*
X116751259Y-93632979D01*
X116737225Y-93678176D01*
X116736534Y-93683386D01*
X116736534Y-93683388D01*
X116716148Y-93837197D01*
X116705996Y-93913789D01*
X102430000Y-93913789D01*
X102430000Y-93856028D01*
X102429637Y-93849331D01*
X102424197Y-93799256D01*
X102420629Y-93784247D01*
X102376183Y-93665689D01*
X102367788Y-93650354D01*
X102292484Y-93549876D01*
X102280124Y-93537516D01*
X102179646Y-93462212D01*
X102164311Y-93453817D01*
X102045753Y-93409371D01*
X102030744Y-93405803D01*
X101980669Y-93400363D01*
X101973972Y-93400000D01*
X101347830Y-93400000D01*
X101332831Y-93404404D01*
X101331644Y-93405774D01*
X101330000Y-93413332D01*
X101330000Y-94482170D01*
X100830000Y-94482170D01*
X100830000Y-93417830D01*
X100825596Y-93402831D01*
X100824226Y-93401644D01*
X100816668Y-93400000D01*
X100186028Y-93400000D01*
X100179331Y-93400363D01*
X100129256Y-93405803D01*
X100114247Y-93409371D01*
X99995689Y-93453817D01*
X99980354Y-93462212D01*
X99879876Y-93537516D01*
X99867516Y-93549876D01*
X99792212Y-93650354D01*
X99783817Y-93665689D01*
X99739371Y-93784247D01*
X99735803Y-93799256D01*
X99730363Y-93849331D01*
X99730000Y-93856028D01*
X99730000Y-94047295D01*
X99710315Y-94114334D01*
X99657511Y-94160089D01*
X99588353Y-94170033D01*
X99524797Y-94141008D01*
X99506645Y-94121487D01*
X99402056Y-93981426D01*
X99402050Y-93981419D01*
X99398651Y-93976867D01*
X99394481Y-93973012D01*
X99394478Y-93973009D01*
X99324787Y-93908588D01*
X99243381Y-93833337D01*
X99204342Y-93808705D01*
X99069363Y-93723539D01*
X99069361Y-93723538D01*
X99064554Y-93720505D01*
X98868160Y-93642152D01*
X98862579Y-93641042D01*
X98862576Y-93641041D01*
X98764467Y-93621526D01*
X98660775Y-93600901D01*
X98655088Y-93600827D01*
X98655083Y-93600826D01*
X98455034Y-93598207D01*
X98455029Y-93598207D01*
X98449346Y-93598133D01*
X98443742Y-93599096D01*
X98443741Y-93599096D01*
X98246550Y-93632979D01*
X98246547Y-93632980D01*
X98240953Y-93633941D01*
X98042575Y-93707127D01*
X98037697Y-93710029D01*
X98037695Y-93710030D01*
X97865740Y-93812332D01*
X97865737Y-93812334D01*
X97860856Y-93815238D01*
X97701881Y-93954655D01*
X97698362Y-93959119D01*
X97698359Y-93959122D01*
X97639731Y-94033492D01*
X97570976Y-94120708D01*
X97472523Y-94307836D01*
X97470837Y-94313267D01*
X97470835Y-94313271D01*
X97418391Y-94482170D01*
X97409820Y-94509773D01*
X97392851Y-94653140D01*
X97365425Y-94717398D01*
X97310974Y-94754346D01*
X97230225Y-94754346D01*
X97230667Y-94754063D01*
X97178057Y-94722081D01*
X97147453Y-94659271D01*
X97146232Y-94649909D01*
X97136601Y-94545100D01*
X97136081Y-94539440D01*
X97078686Y-94335931D01*
X96985165Y-94146290D01*
X96858651Y-93976867D01*
X96854481Y-93973012D01*
X96854478Y-93973009D01*
X96784787Y-93908588D01*
X96703381Y-93833337D01*
X96664342Y-93808705D01*
X96529363Y-93723539D01*
X96529361Y-93723538D01*
X96524554Y-93720505D01*
X96328160Y-93642152D01*
X96322579Y-93641042D01*
X96322576Y-93641041D01*
X96224467Y-93621526D01*
X96120775Y-93600901D01*
X96115088Y-93600827D01*
X96115083Y-93600826D01*
X95915034Y-93598207D01*
X95915029Y-93598207D01*
X95909346Y-93598133D01*
X95903742Y-93599096D01*
X95903741Y-93599096D01*
X95706550Y-93632979D01*
X95706547Y-93632980D01*
X95700953Y-93633941D01*
X95502575Y-93707127D01*
X95497697Y-93710029D01*
X95497695Y-93710030D01*
X95325740Y-93812332D01*
X95325737Y-93812334D01*
X95320856Y-93815238D01*
X95161881Y-93954655D01*
X95158362Y-93959119D01*
X95158359Y-93959122D01*
X95099731Y-94033492D01*
X95030976Y-94120708D01*
X94932523Y-94307836D01*
X94930837Y-94313267D01*
X94930835Y-94313271D01*
X94878391Y-94482170D01*
X94869820Y-94509773D01*
X94852851Y-94653140D01*
X94825425Y-94717398D01*
X94770974Y-94754346D01*
X94690225Y-94754346D01*
X94690667Y-94754063D01*
X94638057Y-94722081D01*
X94607453Y-94659271D01*
X94606232Y-94649909D01*
X94596601Y-94545100D01*
X94596081Y-94539440D01*
X94538686Y-94335931D01*
X94445165Y-94146290D01*
X94318651Y-93976867D01*
X94314481Y-93973012D01*
X94314478Y-93973009D01*
X94244787Y-93908588D01*
X94163381Y-93833337D01*
X94124342Y-93808705D01*
X93989363Y-93723539D01*
X93989361Y-93723538D01*
X93984554Y-93720505D01*
X93788160Y-93642152D01*
X93782579Y-93641042D01*
X93782576Y-93641041D01*
X93684467Y-93621526D01*
X93580775Y-93600901D01*
X93575088Y-93600827D01*
X93575083Y-93600826D01*
X93375034Y-93598207D01*
X93375029Y-93598207D01*
X93369346Y-93598133D01*
X93363742Y-93599096D01*
X93363741Y-93599096D01*
X93166550Y-93632979D01*
X93166547Y-93632980D01*
X93160953Y-93633941D01*
X92962575Y-93707127D01*
X92957697Y-93710029D01*
X92957695Y-93710030D01*
X92785740Y-93812332D01*
X92785737Y-93812334D01*
X92780856Y-93815238D01*
X92621881Y-93954655D01*
X92618362Y-93959119D01*
X92618359Y-93959122D01*
X92559731Y-94033492D01*
X92490976Y-94120708D01*
X92392523Y-94307836D01*
X92390837Y-94313267D01*
X92390835Y-94313271D01*
X92338391Y-94482170D01*
X92329820Y-94509773D01*
X92329152Y-94515418D01*
X92329151Y-94515422D01*
X92319131Y-94600080D01*
X92304967Y-94719754D01*
X83745045Y-94719754D01*
X83780556Y-94649909D01*
X83849913Y-94513493D01*
X83849915Y-94513488D01*
X83852295Y-94508807D01*
X83859170Y-94486668D01*
X83921215Y-94286848D01*
X83922775Y-94281824D01*
X83941343Y-94141733D01*
X83953315Y-94051412D01*
X83953315Y-94051408D01*
X83954004Y-94046211D01*
X83945087Y-93808705D01*
X83943105Y-93799256D01*
X83897361Y-93581242D01*
X83897360Y-93581239D01*
X83896281Y-93576096D01*
X83808980Y-93355037D01*
X83741607Y-93244009D01*
X83688408Y-93156341D01*
X83685681Y-93151847D01*
X83529910Y-92972336D01*
X83346120Y-92821638D01*
X83228687Y-92754791D01*
X83144125Y-92706655D01*
X83144120Y-92706653D01*
X83139567Y-92704061D01*
X82916156Y-92622966D01*
X82682275Y-92580674D01*
X82657381Y-92579500D01*
X82490320Y-92579500D01*
X82487704Y-92579722D01*
X82487703Y-92579722D01*
X82476484Y-92580674D01*
X82313177Y-92594531D01*
X82083126Y-92654240D01*
X81866424Y-92751857D01*
X81669268Y-92884591D01*
X81497295Y-93048645D01*
X81355421Y-93239330D01*
X81353042Y-93244008D01*
X81353042Y-93244009D01*
X81264668Y-93417830D01*
X81247705Y-93451193D01*
X81246146Y-93456213D01*
X81246145Y-93456216D01*
X81191259Y-93632979D01*
X81177225Y-93678176D01*
X81176534Y-93683386D01*
X81176534Y-93683388D01*
X81156148Y-93837197D01*
X81145996Y-93913789D01*
X79294000Y-93913789D01*
X79294000Y-91779912D01*
X93748894Y-91779912D01*
X93749714Y-91787340D01*
X93749714Y-91787342D01*
X93752743Y-91814778D01*
X93767499Y-91948436D01*
X93770065Y-91955448D01*
X93770066Y-91955452D01*
X93823197Y-92100637D01*
X93825766Y-92107657D01*
X93829933Y-92113859D01*
X93829935Y-92113862D01*
X93851543Y-92146018D01*
X93920330Y-92248384D01*
X93925860Y-92253416D01*
X94040202Y-92357460D01*
X94040206Y-92357463D01*
X94045733Y-92362492D01*
X94194735Y-92443393D01*
X94273010Y-92463928D01*
X94351505Y-92484521D01*
X94351507Y-92484521D01*
X94358733Y-92486417D01*
X94441678Y-92487720D01*
X94520790Y-92488963D01*
X94520793Y-92488963D01*
X94528260Y-92489080D01*
X94652752Y-92460568D01*
X94686238Y-92452899D01*
X94686239Y-92452899D01*
X94693529Y-92451229D01*
X94844998Y-92375048D01*
X94849670Y-92371058D01*
X94917761Y-92350500D01*
X95518467Y-92350500D01*
X95588747Y-92372929D01*
X95591233Y-92375191D01*
X95597805Y-92378759D01*
X95597806Y-92378760D01*
X95614358Y-92387747D01*
X95740235Y-92456092D01*
X95835585Y-92481107D01*
X95897005Y-92497220D01*
X95897007Y-92497220D01*
X95904233Y-92499116D01*
X95987178Y-92500419D01*
X96066290Y-92501662D01*
X96066293Y-92501662D01*
X96073760Y-92501779D01*
X96196209Y-92473735D01*
X96231738Y-92465598D01*
X96231739Y-92465598D01*
X96239029Y-92463928D01*
X96314111Y-92426166D01*
X96383820Y-92391106D01*
X96383822Y-92391105D01*
X96390498Y-92387747D01*
X96396180Y-92382894D01*
X96396183Y-92382892D01*
X96513741Y-92282487D01*
X96519423Y-92277634D01*
X96618361Y-92139947D01*
X96681601Y-91982634D01*
X96682654Y-91975237D01*
X96704918Y-91818800D01*
X96704918Y-91818794D01*
X96705490Y-91814778D01*
X96705645Y-91800000D01*
X96685276Y-91631680D01*
X96625345Y-91473077D01*
X96607929Y-91447737D01*
X96533549Y-91339513D01*
X96533546Y-91339510D01*
X96529312Y-91333349D01*
X96487340Y-91295953D01*
X96408303Y-91225533D01*
X96408301Y-91225532D01*
X96402721Y-91220560D01*
X96388347Y-91212949D01*
X96259489Y-91144723D01*
X96252881Y-91141224D01*
X96088441Y-91099919D01*
X96002248Y-91099468D01*
X95926368Y-91099070D01*
X95926367Y-91099070D01*
X95918895Y-91099031D01*
X95897235Y-91104231D01*
X95761295Y-91136868D01*
X95761293Y-91136869D01*
X95754032Y-91138612D01*
X95747399Y-91142035D01*
X95747395Y-91142037D01*
X95680465Y-91176583D01*
X95603369Y-91216375D01*
X95597735Y-91221289D01*
X95591556Y-91225489D01*
X95590283Y-91223616D01*
X95536960Y-91248180D01*
X95518912Y-91249500D01*
X94951183Y-91249500D01*
X94884144Y-91229815D01*
X94868695Y-91218083D01*
X94862808Y-91212838D01*
X94862803Y-91212835D01*
X94857221Y-91207861D01*
X94842847Y-91200250D01*
X94782301Y-91168193D01*
X94707381Y-91128525D01*
X94542941Y-91087220D01*
X94456748Y-91086769D01*
X94380868Y-91086371D01*
X94380867Y-91086371D01*
X94373395Y-91086332D01*
X94351735Y-91091532D01*
X94215795Y-91124169D01*
X94215793Y-91124170D01*
X94208532Y-91125913D01*
X94201899Y-91129336D01*
X94201895Y-91129338D01*
X94178867Y-91141224D01*
X94057869Y-91203676D01*
X94052237Y-91208589D01*
X94005340Y-91249500D01*
X93930104Y-91315132D01*
X93832613Y-91453848D01*
X93771024Y-91611814D01*
X93770048Y-91619224D01*
X93770048Y-91619226D01*
X93767431Y-91639105D01*
X93748894Y-91779912D01*
X79294000Y-91779912D01*
X79294000Y-89188358D01*
X97060843Y-89188358D01*
X97079448Y-89356882D01*
X97082014Y-89363894D01*
X97082015Y-89363898D01*
X97086165Y-89375237D01*
X97137715Y-89516103D01*
X97141882Y-89522305D01*
X97141884Y-89522308D01*
X97153737Y-89539947D01*
X97232279Y-89656830D01*
X97237809Y-89661862D01*
X97352151Y-89765906D01*
X97352155Y-89765909D01*
X97357682Y-89770938D01*
X97506684Y-89851839D01*
X97602034Y-89876854D01*
X97663454Y-89892967D01*
X97663456Y-89892967D01*
X97670682Y-89894863D01*
X97753627Y-89896166D01*
X97832739Y-89897409D01*
X97832742Y-89897409D01*
X97840209Y-89897526D01*
X97962658Y-89869482D01*
X97998187Y-89861345D01*
X97998188Y-89861345D01*
X98005478Y-89859675D01*
X98080560Y-89821913D01*
X98150269Y-89786853D01*
X98150271Y-89786852D01*
X98156947Y-89783494D01*
X98162631Y-89778639D01*
X98168858Y-89774502D01*
X98169930Y-89776115D01*
X98224553Y-89751639D01*
X98241324Y-89750500D01*
X99318467Y-89750500D01*
X99388747Y-89772929D01*
X99391233Y-89775191D01*
X99397805Y-89778759D01*
X99397806Y-89778760D01*
X99406525Y-89783494D01*
X99540235Y-89856092D01*
X99635585Y-89881107D01*
X99697005Y-89897220D01*
X99697007Y-89897220D01*
X99704233Y-89899116D01*
X99787178Y-89900419D01*
X99866290Y-89901662D01*
X99866293Y-89901662D01*
X99873760Y-89901779D01*
X99996209Y-89873735D01*
X100031738Y-89865598D01*
X100031739Y-89865598D01*
X100039029Y-89863928D01*
X100114111Y-89826165D01*
X100183820Y-89791106D01*
X100183822Y-89791105D01*
X100190498Y-89787747D01*
X100196180Y-89782894D01*
X100196183Y-89782892D01*
X100313741Y-89682487D01*
X100319423Y-89677634D01*
X100418361Y-89539947D01*
X100481601Y-89382634D01*
X100482654Y-89375237D01*
X100504918Y-89218800D01*
X100504918Y-89218794D01*
X100505490Y-89214778D01*
X100505645Y-89200000D01*
X100485276Y-89031680D01*
X100425345Y-88873077D01*
X100413734Y-88856183D01*
X100333549Y-88739513D01*
X100333546Y-88739510D01*
X100329312Y-88733349D01*
X100287340Y-88695953D01*
X100208303Y-88625533D01*
X100208301Y-88625532D01*
X100202721Y-88620560D01*
X100196064Y-88617035D01*
X100059489Y-88544723D01*
X100052881Y-88541224D01*
X99888441Y-88499919D01*
X99802248Y-88499468D01*
X99726368Y-88499070D01*
X99726367Y-88499070D01*
X99718895Y-88499031D01*
X99697235Y-88504231D01*
X99561295Y-88536868D01*
X99561293Y-88536869D01*
X99554032Y-88538612D01*
X99547399Y-88542035D01*
X99547395Y-88542037D01*
X99480465Y-88576583D01*
X99403369Y-88616375D01*
X99397735Y-88621289D01*
X99391556Y-88625489D01*
X99390283Y-88623616D01*
X99336960Y-88648180D01*
X99318912Y-88649500D01*
X98253652Y-88649500D01*
X98186613Y-88629815D01*
X98180926Y-88625496D01*
X98180891Y-88625547D01*
X98174751Y-88621280D01*
X98169170Y-88616307D01*
X98154796Y-88608696D01*
X98028898Y-88542037D01*
X98019330Y-88536971D01*
X97854890Y-88495666D01*
X97768697Y-88495215D01*
X97692817Y-88494817D01*
X97692816Y-88494817D01*
X97685344Y-88494778D01*
X97667629Y-88499031D01*
X97527744Y-88532615D01*
X97527742Y-88532616D01*
X97520481Y-88534359D01*
X97513848Y-88537782D01*
X97513844Y-88537784D01*
X97446914Y-88572330D01*
X97369818Y-88612122D01*
X97364186Y-88617035D01*
X97326971Y-88649500D01*
X97242053Y-88723578D01*
X97144562Y-88862294D01*
X97082973Y-89020260D01*
X97081997Y-89027670D01*
X97081997Y-89027672D01*
X97080492Y-89039105D01*
X97060843Y-89188358D01*
X79294000Y-89188358D01*
X79294000Y-82462806D01*
X113989563Y-82462806D01*
X113990112Y-82468839D01*
X113990112Y-82468843D01*
X113999395Y-82570840D01*
X114007790Y-82663089D01*
X114009501Y-82668902D01*
X114009501Y-82668903D01*
X114011944Y-82677203D01*
X114064572Y-82856018D01*
X114157746Y-83034243D01*
X114251919Y-83151370D01*
X114279137Y-83185222D01*
X114283763Y-83190976D01*
X114437823Y-83320248D01*
X114614058Y-83417134D01*
X114619840Y-83418968D01*
X114619842Y-83418969D01*
X114799976Y-83476111D01*
X114799978Y-83476111D01*
X114805755Y-83477944D01*
X114860287Y-83484061D01*
X114958815Y-83495113D01*
X114958821Y-83495113D01*
X114962268Y-83495500D01*
X115620606Y-83495500D01*
X115623621Y-83495204D01*
X115623629Y-83495204D01*
X115764115Y-83481429D01*
X115764117Y-83481429D01*
X115770151Y-83480837D01*
X115962679Y-83422710D01*
X116140249Y-83328294D01*
X116296099Y-83201186D01*
X116424292Y-83046227D01*
X116431203Y-83033446D01*
X116517059Y-82874658D01*
X116517060Y-82874656D01*
X116519945Y-82869320D01*
X116579415Y-82677203D01*
X116590594Y-82570840D01*
X117890711Y-82570840D01*
X117900667Y-82760801D01*
X117951181Y-82944193D01*
X118039898Y-83112460D01*
X118044229Y-83117585D01*
X118044231Y-83117588D01*
X118158345Y-83252624D01*
X118162678Y-83257751D01*
X118168012Y-83261829D01*
X118308456Y-83369207D01*
X118308459Y-83369209D01*
X118313793Y-83373287D01*
X118319882Y-83376126D01*
X118319883Y-83376127D01*
X118480109Y-83450841D01*
X118486193Y-83453678D01*
X118492738Y-83455141D01*
X118492741Y-83455142D01*
X118584890Y-83475740D01*
X118671834Y-83495174D01*
X118677665Y-83495500D01*
X119467517Y-83495500D01*
X119609109Y-83480118D01*
X119789396Y-83419445D01*
X119952447Y-83321474D01*
X120079649Y-83201186D01*
X120085781Y-83195387D01*
X120090658Y-83190775D01*
X120140396Y-83117588D01*
X120193804Y-83039000D01*
X120193806Y-83038997D01*
X120197578Y-83033446D01*
X120200070Y-83027216D01*
X120200072Y-83027212D01*
X120265727Y-82863062D01*
X120268221Y-82856827D01*
X120269318Y-82850202D01*
X120298192Y-82675788D01*
X120298192Y-82675786D01*
X120299289Y-82669160D01*
X120289333Y-82479199D01*
X120238819Y-82295807D01*
X120150102Y-82127540D01*
X120106947Y-82076472D01*
X120031655Y-81987376D01*
X120031653Y-81987374D01*
X120027322Y-81982249D01*
X119943976Y-81918526D01*
X119881544Y-81870793D01*
X119881541Y-81870791D01*
X119876207Y-81866713D01*
X119803367Y-81832747D01*
X119709891Y-81789159D01*
X119703807Y-81786322D01*
X119697262Y-81784859D01*
X119697259Y-81784858D01*
X119585522Y-81759882D01*
X119518166Y-81744826D01*
X119512335Y-81744500D01*
X118722483Y-81744500D01*
X118580891Y-81759882D01*
X118400604Y-81820555D01*
X118237553Y-81918526D01*
X118099342Y-82049225D01*
X118095569Y-82054777D01*
X118095568Y-82054778D01*
X118042083Y-82133480D01*
X117992422Y-82206554D01*
X117989930Y-82212784D01*
X117989928Y-82212788D01*
X117969926Y-82262797D01*
X117921779Y-82383173D01*
X117920683Y-82389796D01*
X117920682Y-82389798D01*
X117906954Y-82472726D01*
X117890711Y-82570840D01*
X116590594Y-82570840D01*
X116600437Y-82477194D01*
X116592484Y-82389798D01*
X116584519Y-82302280D01*
X116582210Y-82276911D01*
X116525428Y-82083982D01*
X116522617Y-82078606D01*
X116520346Y-82072984D01*
X116521705Y-82072435D01*
X116509512Y-82011039D01*
X116535113Y-81946029D01*
X116584618Y-81910100D01*
X116584029Y-81908928D01*
X116728820Y-81836106D01*
X116728822Y-81836105D01*
X116735498Y-81832747D01*
X116741180Y-81827894D01*
X116741183Y-81827892D01*
X116858741Y-81727487D01*
X116864423Y-81722634D01*
X116963361Y-81584947D01*
X117026601Y-81427634D01*
X117050490Y-81259778D01*
X117050645Y-81245000D01*
X117030276Y-81076680D01*
X116970345Y-80918077D01*
X116961657Y-80905436D01*
X116878549Y-80784513D01*
X116878546Y-80784510D01*
X116874312Y-80778349D01*
X116747721Y-80665560D01*
X116733347Y-80657949D01*
X116604489Y-80589723D01*
X116597881Y-80586224D01*
X116433441Y-80544919D01*
X116347248Y-80544468D01*
X116271368Y-80544070D01*
X116271367Y-80544070D01*
X116263895Y-80544031D01*
X116242235Y-80549231D01*
X116106295Y-80581868D01*
X116106293Y-80581869D01*
X116099032Y-80583612D01*
X116092399Y-80587035D01*
X116092395Y-80587037D01*
X116025465Y-80621583D01*
X115948369Y-80661375D01*
X115820604Y-80772831D01*
X115723113Y-80911547D01*
X115661524Y-81069513D01*
X115639394Y-81237611D01*
X115640214Y-81245039D01*
X115640214Y-81245041D01*
X115647043Y-81306893D01*
X115634834Y-81375687D01*
X115587370Y-81426960D01*
X115523792Y-81444500D01*
X114969394Y-81444500D01*
X114966379Y-81444796D01*
X114966371Y-81444796D01*
X114825885Y-81458571D01*
X114825883Y-81458571D01*
X114819849Y-81459163D01*
X114627321Y-81517290D01*
X114449751Y-81611706D01*
X114293901Y-81738814D01*
X114165708Y-81893773D01*
X114162822Y-81899110D01*
X114162821Y-81899112D01*
X114081656Y-82049225D01*
X114070055Y-82070680D01*
X114010585Y-82262797D01*
X113989563Y-82462806D01*
X79294000Y-82462806D01*
X79294000Y-75200862D01*
X80289497Y-75200862D01*
X80319134Y-75373340D01*
X80321957Y-75379973D01*
X80321957Y-75379975D01*
X80338699Y-75419320D01*
X80387654Y-75534373D01*
X80391921Y-75540171D01*
X80391922Y-75540173D01*
X80487057Y-75669445D01*
X80491383Y-75675324D01*
X80496874Y-75679989D01*
X80496875Y-75679990D01*
X80619261Y-75783965D01*
X80619264Y-75783967D01*
X80624755Y-75788632D01*
X80631172Y-75791909D01*
X80631174Y-75791910D01*
X80697616Y-75825837D01*
X80780616Y-75868219D01*
X80787612Y-75869931D01*
X80787615Y-75869932D01*
X80858763Y-75887341D01*
X80950606Y-75909815D01*
X80956114Y-75910157D01*
X80956116Y-75910157D01*
X80959744Y-75910382D01*
X80959748Y-75910382D01*
X80961648Y-75910500D01*
X81087822Y-75910500D01*
X81217828Y-75895343D01*
X81224595Y-75892887D01*
X81224598Y-75892886D01*
X81375557Y-75838090D01*
X81375558Y-75838089D01*
X81382331Y-75835631D01*
X81461135Y-75783965D01*
X81522656Y-75743630D01*
X81522657Y-75743629D01*
X81528685Y-75739677D01*
X81533637Y-75734449D01*
X81533640Y-75734447D01*
X81644087Y-75617857D01*
X81644089Y-75617855D01*
X81649040Y-75612628D01*
X81652656Y-75606403D01*
X81652658Y-75606400D01*
X81733322Y-75467525D01*
X81736939Y-75461298D01*
X81787667Y-75293807D01*
X81798503Y-75119138D01*
X81780232Y-75012806D01*
X113989563Y-75012806D01*
X113990112Y-75018839D01*
X113990112Y-75018843D01*
X113998119Y-75106827D01*
X114007790Y-75213089D01*
X114009501Y-75218902D01*
X114009501Y-75218903D01*
X114033576Y-75300704D01*
X114064572Y-75406018D01*
X114157746Y-75584243D01*
X114226312Y-75669521D01*
X114278514Y-75734447D01*
X114283763Y-75740976D01*
X114437823Y-75870248D01*
X114614058Y-75967134D01*
X114619840Y-75968968D01*
X114619842Y-75968969D01*
X114799976Y-76026111D01*
X114799978Y-76026111D01*
X114805755Y-76027944D01*
X114860287Y-76034061D01*
X114958815Y-76045113D01*
X114958821Y-76045113D01*
X114962268Y-76045500D01*
X115523291Y-76045500D01*
X115590330Y-76065185D01*
X115636085Y-76117989D01*
X115646230Y-76185685D01*
X115639394Y-76237611D01*
X115640214Y-76245039D01*
X115640214Y-76245041D01*
X115641841Y-76259778D01*
X115657999Y-76406135D01*
X115660565Y-76413147D01*
X115660566Y-76413151D01*
X115713697Y-76558336D01*
X115716266Y-76565356D01*
X115720433Y-76571558D01*
X115720435Y-76571561D01*
X115733510Y-76591018D01*
X115810830Y-76706083D01*
X115816360Y-76711115D01*
X115930702Y-76815159D01*
X115930706Y-76815162D01*
X115936233Y-76820191D01*
X116085235Y-76901092D01*
X116180585Y-76926107D01*
X116242005Y-76942220D01*
X116242007Y-76942220D01*
X116249233Y-76944116D01*
X116332178Y-76945419D01*
X116411290Y-76946662D01*
X116411293Y-76946662D01*
X116418760Y-76946779D01*
X116541209Y-76918735D01*
X116576738Y-76910598D01*
X116576739Y-76910598D01*
X116584029Y-76908928D01*
X116659111Y-76871166D01*
X116728820Y-76836106D01*
X116728822Y-76836105D01*
X116735498Y-76832747D01*
X116741180Y-76827894D01*
X116741183Y-76827892D01*
X116858741Y-76727487D01*
X116864423Y-76722634D01*
X116963361Y-76584947D01*
X117026601Y-76427634D01*
X117050490Y-76259778D01*
X117050645Y-76245000D01*
X117030276Y-76076680D01*
X117011168Y-76026111D01*
X116972989Y-75925073D01*
X116972987Y-75925070D01*
X116970345Y-75918077D01*
X116966108Y-75911912D01*
X116878549Y-75784513D01*
X116878546Y-75784510D01*
X116874312Y-75778349D01*
X116790504Y-75703678D01*
X116753303Y-75670533D01*
X116753301Y-75670532D01*
X116747721Y-75665560D01*
X116660176Y-75619207D01*
X116604484Y-75589720D01*
X116604483Y-75589720D01*
X116597881Y-75586224D01*
X116590636Y-75584404D01*
X116588919Y-75583745D01*
X116533387Y-75541343D01*
X116509595Y-75475648D01*
X116518788Y-75421459D01*
X116519945Y-75419320D01*
X116579415Y-75227203D01*
X116600437Y-75027194D01*
X116599719Y-75019296D01*
X116582759Y-74832946D01*
X116582210Y-74826911D01*
X116580423Y-74820840D01*
X117890711Y-74820840D01*
X117900667Y-75010801D01*
X117951181Y-75194193D01*
X118039898Y-75362460D01*
X118044229Y-75367585D01*
X118044231Y-75367588D01*
X118135549Y-75475648D01*
X118162678Y-75507751D01*
X118168012Y-75511829D01*
X118308456Y-75619207D01*
X118308459Y-75619209D01*
X118313793Y-75623287D01*
X118319882Y-75626126D01*
X118319883Y-75626127D01*
X118425387Y-75675324D01*
X118486193Y-75703678D01*
X118492738Y-75705141D01*
X118492741Y-75705142D01*
X118584890Y-75725740D01*
X118671834Y-75745174D01*
X118677665Y-75745500D01*
X119467517Y-75745500D01*
X119609109Y-75730118D01*
X119789396Y-75669445D01*
X119952447Y-75571474D01*
X120090658Y-75440775D01*
X120105239Y-75419320D01*
X120193804Y-75289000D01*
X120193806Y-75288997D01*
X120197578Y-75283446D01*
X120200070Y-75277216D01*
X120200072Y-75277212D01*
X120251016Y-75149842D01*
X120268221Y-75106827D01*
X120282787Y-75018843D01*
X120298192Y-74925788D01*
X120298192Y-74925786D01*
X120299289Y-74919160D01*
X120289333Y-74729199D01*
X120238819Y-74545807D01*
X120167172Y-74409916D01*
X120153234Y-74383480D01*
X120153233Y-74383479D01*
X120150102Y-74377540D01*
X120080457Y-74295125D01*
X120031655Y-74237376D01*
X120031653Y-74237374D01*
X120027322Y-74232249D01*
X119941756Y-74166829D01*
X119881544Y-74120793D01*
X119881541Y-74120791D01*
X119876207Y-74116713D01*
X119784643Y-74074016D01*
X119709891Y-74039159D01*
X119703807Y-74036322D01*
X119697262Y-74034859D01*
X119697259Y-74034858D01*
X119585522Y-74009882D01*
X119518166Y-73994826D01*
X119512335Y-73994500D01*
X118722483Y-73994500D01*
X118580891Y-74009882D01*
X118400604Y-74070555D01*
X118237553Y-74168526D01*
X118232676Y-74173138D01*
X118105406Y-74293491D01*
X118099342Y-74299225D01*
X118095569Y-74304777D01*
X118095568Y-74304778D01*
X117996830Y-74450068D01*
X117992422Y-74456554D01*
X117989930Y-74462784D01*
X117989928Y-74462788D01*
X117959099Y-74539867D01*
X117921779Y-74633173D01*
X117920683Y-74639796D01*
X117920682Y-74639798D01*
X117892043Y-74812797D01*
X117890711Y-74820840D01*
X116580423Y-74820840D01*
X116578473Y-74814212D01*
X116527141Y-74639802D01*
X116527141Y-74639801D01*
X116525428Y-74633982D01*
X116432254Y-74455757D01*
X116338081Y-74338630D01*
X116310037Y-74303750D01*
X116310036Y-74303749D01*
X116306237Y-74299024D01*
X116152177Y-74169752D01*
X115975942Y-74072866D01*
X115970160Y-74071032D01*
X115970158Y-74071031D01*
X115790024Y-74013889D01*
X115790022Y-74013889D01*
X115784245Y-74012056D01*
X115729713Y-74005939D01*
X115631185Y-73994887D01*
X115631179Y-73994887D01*
X115627732Y-73994500D01*
X114969394Y-73994500D01*
X114966379Y-73994796D01*
X114966371Y-73994796D01*
X114825885Y-74008571D01*
X114825883Y-74008571D01*
X114819849Y-74009163D01*
X114627321Y-74067290D01*
X114449751Y-74161706D01*
X114293901Y-74288814D01*
X114165708Y-74443773D01*
X114162822Y-74449110D01*
X114162821Y-74449112D01*
X114107039Y-74552280D01*
X114070055Y-74620680D01*
X114010585Y-74812797D01*
X113989563Y-75012806D01*
X81780232Y-75012806D01*
X81768866Y-74946660D01*
X81700346Y-74785627D01*
X81663754Y-74735904D01*
X81600888Y-74650479D01*
X81600886Y-74650477D01*
X81596617Y-74644676D01*
X81590875Y-74639798D01*
X81468739Y-74536035D01*
X81468736Y-74536033D01*
X81463245Y-74531368D01*
X81456828Y-74528091D01*
X81456826Y-74528090D01*
X81366388Y-74481910D01*
X81307384Y-74451781D01*
X81300388Y-74450069D01*
X81300385Y-74450068D01*
X81229237Y-74432659D01*
X81137394Y-74410185D01*
X81131886Y-74409843D01*
X81131884Y-74409843D01*
X81128256Y-74409618D01*
X81128252Y-74409618D01*
X81126352Y-74409500D01*
X81000178Y-74409500D01*
X80870172Y-74424657D01*
X80863405Y-74427113D01*
X80863402Y-74427114D01*
X80765123Y-74462788D01*
X80705669Y-74484369D01*
X80633984Y-74531368D01*
X80602088Y-74552280D01*
X80559315Y-74580323D01*
X80554363Y-74585551D01*
X80554360Y-74585553D01*
X80492855Y-74650479D01*
X80438960Y-74707372D01*
X80435344Y-74713597D01*
X80435342Y-74713600D01*
X80422387Y-74735904D01*
X80351061Y-74858702D01*
X80300333Y-75026193D01*
X80289497Y-75200862D01*
X79294000Y-75200862D01*
X79294000Y-72200862D01*
X80289497Y-72200862D01*
X80319134Y-72373340D01*
X80387654Y-72534373D01*
X80391921Y-72540171D01*
X80391922Y-72540173D01*
X80449092Y-72617857D01*
X80491383Y-72675324D01*
X80496874Y-72679989D01*
X80496875Y-72679990D01*
X80619261Y-72783965D01*
X80619264Y-72783967D01*
X80624755Y-72788632D01*
X80631172Y-72791909D01*
X80631174Y-72791910D01*
X80697616Y-72825837D01*
X80780616Y-72868219D01*
X80787612Y-72869931D01*
X80787615Y-72869932D01*
X80858763Y-72887341D01*
X80950606Y-72909815D01*
X80956114Y-72910157D01*
X80956116Y-72910157D01*
X80959744Y-72910382D01*
X80959748Y-72910382D01*
X80961648Y-72910500D01*
X81087822Y-72910500D01*
X81217828Y-72895343D01*
X81224595Y-72892887D01*
X81224598Y-72892886D01*
X81375557Y-72838090D01*
X81375558Y-72838089D01*
X81382331Y-72835631D01*
X81528685Y-72739677D01*
X81533637Y-72734449D01*
X81533640Y-72734447D01*
X81644087Y-72617857D01*
X81644089Y-72617855D01*
X81649040Y-72612628D01*
X81652656Y-72606403D01*
X81652658Y-72606400D01*
X81733322Y-72467525D01*
X81736939Y-72461298D01*
X81787667Y-72293807D01*
X81798503Y-72119138D01*
X81768866Y-71946660D01*
X81700346Y-71785627D01*
X81647340Y-71713600D01*
X81600888Y-71650479D01*
X81600886Y-71650477D01*
X81596617Y-71644676D01*
X81516216Y-71576370D01*
X81468739Y-71536035D01*
X81468736Y-71536033D01*
X81463245Y-71531368D01*
X81456828Y-71528091D01*
X81456826Y-71528090D01*
X81366388Y-71481910D01*
X81307384Y-71451781D01*
X81300388Y-71450069D01*
X81300385Y-71450068D01*
X81229237Y-71432659D01*
X81137394Y-71410185D01*
X81131886Y-71409843D01*
X81131884Y-71409843D01*
X81128256Y-71409618D01*
X81128252Y-71409618D01*
X81126352Y-71409500D01*
X81000178Y-71409500D01*
X80870172Y-71424657D01*
X80863405Y-71427113D01*
X80863402Y-71427114D01*
X80712443Y-71481910D01*
X80705669Y-71484369D01*
X80559315Y-71580323D01*
X80554363Y-71585551D01*
X80554360Y-71585553D01*
X80492855Y-71650479D01*
X80438960Y-71707372D01*
X80435344Y-71713597D01*
X80435342Y-71713600D01*
X80396875Y-71779827D01*
X80351061Y-71858702D01*
X80300333Y-72026193D01*
X80289497Y-72200862D01*
X79294000Y-72200862D01*
X79294000Y-65973789D01*
X81145996Y-65973789D01*
X81150771Y-66100969D01*
X81154494Y-66200124D01*
X81154913Y-66211295D01*
X81155990Y-66216430D01*
X81155991Y-66216435D01*
X81183422Y-66347169D01*
X81203719Y-66443904D01*
X81291020Y-66664963D01*
X81293741Y-66669447D01*
X81293743Y-66669451D01*
X81361233Y-66780670D01*
X81414319Y-66868153D01*
X81570090Y-67047664D01*
X81753880Y-67198362D01*
X81758441Y-67200958D01*
X81758442Y-67200959D01*
X81955875Y-67313345D01*
X81955880Y-67313347D01*
X81960433Y-67315939D01*
X82183844Y-67397034D01*
X82417725Y-67439326D01*
X82442619Y-67440500D01*
X82609680Y-67440500D01*
X82612296Y-67440278D01*
X82612297Y-67440278D01*
X82781590Y-67425913D01*
X82786823Y-67425469D01*
X83016874Y-67365760D01*
X83233576Y-67268143D01*
X83430732Y-67135409D01*
X83602705Y-66971355D01*
X83744579Y-66780670D01*
X83746958Y-66775991D01*
X83849913Y-66573493D01*
X83849915Y-66573488D01*
X83852295Y-66568807D01*
X83922775Y-66341824D01*
X83924055Y-66332170D01*
X83953315Y-66111412D01*
X83953315Y-66111408D01*
X83954004Y-66106211D01*
X83946287Y-65900669D01*
X83946036Y-65893972D01*
X88770000Y-65893972D01*
X88770363Y-65900669D01*
X88775803Y-65950744D01*
X88779371Y-65965753D01*
X88823817Y-66084311D01*
X88832212Y-66099646D01*
X88907516Y-66200124D01*
X88919876Y-66212484D01*
X89020354Y-66287788D01*
X89035689Y-66296183D01*
X89154247Y-66340629D01*
X89169256Y-66344197D01*
X89219331Y-66349637D01*
X89226028Y-66350000D01*
X89852170Y-66350000D01*
X89867169Y-66345596D01*
X89868356Y-66344226D01*
X89870000Y-66336668D01*
X89870000Y-66332170D01*
X90370000Y-66332170D01*
X90374404Y-66347169D01*
X90375774Y-66348356D01*
X90383332Y-66350000D01*
X91013972Y-66350000D01*
X91020669Y-66349637D01*
X91070744Y-66344197D01*
X91085753Y-66340629D01*
X91204311Y-66296183D01*
X91219646Y-66287788D01*
X91320124Y-66212484D01*
X91332484Y-66200124D01*
X91407788Y-66099646D01*
X91416183Y-66084311D01*
X91460629Y-65965753D01*
X91464197Y-65950744D01*
X91469637Y-65900669D01*
X91470000Y-65893972D01*
X91470000Y-65700070D01*
X91489685Y-65633031D01*
X91542489Y-65587276D01*
X91611647Y-65577332D01*
X91675203Y-65606357D01*
X91695263Y-65628503D01*
X91713595Y-65654442D01*
X91776456Y-65743388D01*
X91781405Y-65750391D01*
X91932865Y-65897937D01*
X91937588Y-65901093D01*
X91937592Y-65901096D01*
X92008663Y-65948584D01*
X92108677Y-66015411D01*
X92302953Y-66098878D01*
X92335360Y-66106211D01*
X92503638Y-66144289D01*
X92503642Y-66144290D01*
X92509186Y-66145544D01*
X92635651Y-66150513D01*
X92714789Y-66153623D01*
X92714791Y-66153623D01*
X92720470Y-66153846D01*
X92726090Y-66153031D01*
X92726092Y-66153031D01*
X92924103Y-66124320D01*
X92924104Y-66124320D01*
X92929730Y-66123504D01*
X93008890Y-66096633D01*
X93124565Y-66057367D01*
X93124568Y-66057366D01*
X93129955Y-66055537D01*
X93134916Y-66052759D01*
X93134922Y-66052756D01*
X93290275Y-65965753D01*
X93314442Y-65952219D01*
X93414858Y-65868705D01*
X93472645Y-65820644D01*
X93477012Y-65817012D01*
X93480644Y-65812645D01*
X93608584Y-65658813D01*
X93608585Y-65658811D01*
X93612219Y-65654442D01*
X93695067Y-65506507D01*
X93712756Y-65474922D01*
X93712759Y-65474916D01*
X93715537Y-65469955D01*
X93746009Y-65380189D01*
X93781675Y-65275118D01*
X93783504Y-65269730D01*
X93785954Y-65252831D01*
X93807820Y-65102033D01*
X93836921Y-65038512D01*
X93890225Y-65004346D01*
X93970974Y-65004346D01*
X94024347Y-65038736D01*
X94053296Y-65102327D01*
X94054271Y-65111707D01*
X94058796Y-65180749D01*
X94110845Y-65385690D01*
X94113219Y-65390841D01*
X94113221Y-65390845D01*
X94151981Y-65474922D01*
X94199369Y-65577714D01*
X94202647Y-65582352D01*
X94316456Y-65743388D01*
X94321405Y-65750391D01*
X94472865Y-65897937D01*
X94477588Y-65901093D01*
X94477592Y-65901096D01*
X94548663Y-65948584D01*
X94648677Y-66015411D01*
X94842953Y-66098878D01*
X94875360Y-66106211D01*
X95043638Y-66144289D01*
X95043642Y-66144290D01*
X95049186Y-66145544D01*
X95175651Y-66150513D01*
X95254789Y-66153623D01*
X95254791Y-66153623D01*
X95260470Y-66153846D01*
X95266090Y-66153031D01*
X95266092Y-66153031D01*
X95464103Y-66124320D01*
X95464104Y-66124320D01*
X95469730Y-66123504D01*
X95548890Y-66096633D01*
X95664565Y-66057367D01*
X95664568Y-66057366D01*
X95669955Y-66055537D01*
X95674916Y-66052759D01*
X95674922Y-66052756D01*
X95830275Y-65965753D01*
X95854442Y-65952219D01*
X95954858Y-65868705D01*
X96012645Y-65820644D01*
X96017012Y-65817012D01*
X96020644Y-65812645D01*
X96148584Y-65658813D01*
X96148585Y-65658811D01*
X96152219Y-65654442D01*
X96235067Y-65506507D01*
X96252756Y-65474922D01*
X96252759Y-65474916D01*
X96255537Y-65469955D01*
X96286009Y-65380189D01*
X96321675Y-65275118D01*
X96323504Y-65269730D01*
X96325954Y-65252831D01*
X96347820Y-65102033D01*
X96376921Y-65038512D01*
X96430225Y-65004346D01*
X96510974Y-65004346D01*
X96564347Y-65038736D01*
X96593296Y-65102327D01*
X96594271Y-65111707D01*
X96598796Y-65180749D01*
X96650845Y-65385690D01*
X96653219Y-65390841D01*
X96653221Y-65390845D01*
X96691981Y-65474922D01*
X96739369Y-65577714D01*
X96742647Y-65582352D01*
X96856456Y-65743388D01*
X96861405Y-65750391D01*
X97012865Y-65897937D01*
X97017588Y-65901093D01*
X97017592Y-65901096D01*
X97088663Y-65948584D01*
X97188677Y-66015411D01*
X97382953Y-66098878D01*
X97415360Y-66106211D01*
X97583638Y-66144289D01*
X97583642Y-66144290D01*
X97589186Y-66145544D01*
X97715651Y-66150513D01*
X97794789Y-66153623D01*
X97794791Y-66153623D01*
X97800470Y-66153846D01*
X97806090Y-66153031D01*
X97806092Y-66153031D01*
X98004103Y-66124320D01*
X98004104Y-66124320D01*
X98009730Y-66123504D01*
X98088890Y-66096633D01*
X98204565Y-66057367D01*
X98204568Y-66057366D01*
X98209955Y-66055537D01*
X98214916Y-66052759D01*
X98214922Y-66052756D01*
X98370275Y-65965753D01*
X98394442Y-65952219D01*
X98464477Y-65893972D01*
X101860000Y-65893972D01*
X101860363Y-65900669D01*
X101865803Y-65950744D01*
X101869371Y-65965753D01*
X101913817Y-66084311D01*
X101922212Y-66099646D01*
X101997516Y-66200124D01*
X102009876Y-66212484D01*
X102110354Y-66287788D01*
X102125689Y-66296183D01*
X102244247Y-66340629D01*
X102259256Y-66344197D01*
X102309331Y-66349637D01*
X102316028Y-66350000D01*
X102942170Y-66350000D01*
X102957169Y-66345596D01*
X102958356Y-66344226D01*
X102960000Y-66336668D01*
X102960000Y-66332170D01*
X103460000Y-66332170D01*
X103464404Y-66347169D01*
X103465774Y-66348356D01*
X103473332Y-66350000D01*
X104103972Y-66350000D01*
X104110669Y-66349637D01*
X104160744Y-66344197D01*
X104175753Y-66340629D01*
X104294311Y-66296183D01*
X104309646Y-66287788D01*
X104410124Y-66212484D01*
X104422484Y-66200124D01*
X104497788Y-66099646D01*
X104506183Y-66084311D01*
X104550629Y-65965753D01*
X104554197Y-65950744D01*
X104559637Y-65900669D01*
X104560000Y-65893972D01*
X104560000Y-65700070D01*
X104579685Y-65633031D01*
X104632489Y-65587276D01*
X104701647Y-65577332D01*
X104765203Y-65606357D01*
X104785263Y-65628503D01*
X104803595Y-65654442D01*
X104866456Y-65743388D01*
X104871405Y-65750391D01*
X105022865Y-65897937D01*
X105027588Y-65901093D01*
X105027592Y-65901096D01*
X105098663Y-65948584D01*
X105198677Y-66015411D01*
X105392953Y-66098878D01*
X105425360Y-66106211D01*
X105593638Y-66144289D01*
X105593642Y-66144290D01*
X105599186Y-66145544D01*
X105725651Y-66150513D01*
X105804789Y-66153623D01*
X105804791Y-66153623D01*
X105810470Y-66153846D01*
X105816090Y-66153031D01*
X105816092Y-66153031D01*
X106014103Y-66124320D01*
X106014104Y-66124320D01*
X106019730Y-66123504D01*
X106098890Y-66096633D01*
X106214565Y-66057367D01*
X106214568Y-66057366D01*
X106219955Y-66055537D01*
X106224916Y-66052759D01*
X106224922Y-66052756D01*
X106380275Y-65965753D01*
X106404442Y-65952219D01*
X106504858Y-65868705D01*
X106562645Y-65820644D01*
X106567012Y-65817012D01*
X106570644Y-65812645D01*
X106698584Y-65658813D01*
X106698585Y-65658811D01*
X106702219Y-65654442D01*
X106785067Y-65506507D01*
X106802756Y-65474922D01*
X106802759Y-65474916D01*
X106805537Y-65469955D01*
X106836009Y-65380189D01*
X106871675Y-65275118D01*
X106873504Y-65269730D01*
X106875954Y-65252831D01*
X106897820Y-65102033D01*
X106926921Y-65038512D01*
X106980225Y-65004346D01*
X107060974Y-65004346D01*
X107114347Y-65038736D01*
X107143296Y-65102327D01*
X107144271Y-65111707D01*
X107148796Y-65180749D01*
X107200845Y-65385690D01*
X107203219Y-65390841D01*
X107203221Y-65390845D01*
X107241981Y-65474922D01*
X107289369Y-65577714D01*
X107292647Y-65582352D01*
X107406456Y-65743388D01*
X107411405Y-65750391D01*
X107562865Y-65897937D01*
X107567588Y-65901093D01*
X107567592Y-65901096D01*
X107638663Y-65948584D01*
X107738677Y-66015411D01*
X107932953Y-66098878D01*
X107965360Y-66106211D01*
X108133638Y-66144289D01*
X108133642Y-66144290D01*
X108139186Y-66145544D01*
X108265651Y-66150513D01*
X108344789Y-66153623D01*
X108344791Y-66153623D01*
X108350470Y-66153846D01*
X108356090Y-66153031D01*
X108356092Y-66153031D01*
X108554103Y-66124320D01*
X108554104Y-66124320D01*
X108559730Y-66123504D01*
X108638890Y-66096633D01*
X108754565Y-66057367D01*
X108754568Y-66057366D01*
X108759955Y-66055537D01*
X108764916Y-66052759D01*
X108764922Y-66052756D01*
X108920275Y-65965753D01*
X108944442Y-65952219D01*
X109044858Y-65868705D01*
X109102645Y-65820644D01*
X109107012Y-65817012D01*
X109110644Y-65812645D01*
X109238584Y-65658813D01*
X109238585Y-65658811D01*
X109242219Y-65654442D01*
X109325067Y-65506507D01*
X109342756Y-65474922D01*
X109342759Y-65474916D01*
X109345537Y-65469955D01*
X109376009Y-65380189D01*
X109411675Y-65275118D01*
X109413504Y-65269730D01*
X109415954Y-65252831D01*
X109437820Y-65102033D01*
X109466921Y-65038512D01*
X109520225Y-65004346D01*
X109600974Y-65004346D01*
X109654347Y-65038736D01*
X109683296Y-65102327D01*
X109684271Y-65111707D01*
X109688796Y-65180749D01*
X109740845Y-65385690D01*
X109743219Y-65390841D01*
X109743221Y-65390845D01*
X109781981Y-65474922D01*
X109829369Y-65577714D01*
X109832647Y-65582352D01*
X109946456Y-65743388D01*
X109951405Y-65750391D01*
X110102865Y-65897937D01*
X110107588Y-65901093D01*
X110107592Y-65901096D01*
X110178663Y-65948584D01*
X110278677Y-66015411D01*
X110472953Y-66098878D01*
X110505360Y-66106211D01*
X110673638Y-66144289D01*
X110673642Y-66144290D01*
X110679186Y-66145544D01*
X110805651Y-66150513D01*
X110884789Y-66153623D01*
X110884791Y-66153623D01*
X110890470Y-66153846D01*
X110896090Y-66153031D01*
X110896092Y-66153031D01*
X111094103Y-66124320D01*
X111094104Y-66124320D01*
X111099730Y-66123504D01*
X111178890Y-66096633D01*
X111294565Y-66057367D01*
X111294568Y-66057366D01*
X111299955Y-66055537D01*
X111304916Y-66052759D01*
X111304922Y-66052756D01*
X111445926Y-65973789D01*
X116705996Y-65973789D01*
X116710771Y-66100969D01*
X116714494Y-66200124D01*
X116714913Y-66211295D01*
X116715990Y-66216430D01*
X116715991Y-66216435D01*
X116743422Y-66347169D01*
X116763719Y-66443904D01*
X116851020Y-66664963D01*
X116853741Y-66669447D01*
X116853743Y-66669451D01*
X116921233Y-66780670D01*
X116974319Y-66868153D01*
X117130090Y-67047664D01*
X117313880Y-67198362D01*
X117318441Y-67200958D01*
X117318442Y-67200959D01*
X117515875Y-67313345D01*
X117515880Y-67313347D01*
X117520433Y-67315939D01*
X117743844Y-67397034D01*
X117977725Y-67439326D01*
X118002619Y-67440500D01*
X118169680Y-67440500D01*
X118172296Y-67440278D01*
X118172297Y-67440278D01*
X118341590Y-67425913D01*
X118346823Y-67425469D01*
X118576874Y-67365760D01*
X118793576Y-67268143D01*
X118990732Y-67135409D01*
X119162705Y-66971355D01*
X119304579Y-66780670D01*
X119306958Y-66775991D01*
X119409913Y-66573493D01*
X119409915Y-66573488D01*
X119412295Y-66568807D01*
X119482775Y-66341824D01*
X119484055Y-66332170D01*
X119513315Y-66111412D01*
X119513315Y-66111408D01*
X119514004Y-66106211D01*
X119506287Y-65900669D01*
X119505284Y-65873949D01*
X119505284Y-65873948D01*
X119505087Y-65868705D01*
X119493325Y-65812645D01*
X119457361Y-65641242D01*
X119457360Y-65641239D01*
X119456281Y-65636096D01*
X119444537Y-65606357D01*
X119390668Y-65469955D01*
X119368980Y-65415037D01*
X119301607Y-65304009D01*
X119248408Y-65216341D01*
X119245681Y-65211847D01*
X119089910Y-65032336D01*
X118906120Y-64881638D01*
X118788687Y-64814791D01*
X118704125Y-64766655D01*
X118704120Y-64766653D01*
X118699567Y-64764061D01*
X118476156Y-64682966D01*
X118242275Y-64640674D01*
X118217381Y-64639500D01*
X118050320Y-64639500D01*
X118047704Y-64639722D01*
X118047703Y-64639722D01*
X118036484Y-64640674D01*
X117873177Y-64654531D01*
X117643126Y-64714240D01*
X117426424Y-64811857D01*
X117229268Y-64944591D01*
X117057295Y-65108645D01*
X116915421Y-65299330D01*
X116913042Y-65304008D01*
X116913042Y-65304009D01*
X116831412Y-65464565D01*
X116807705Y-65511193D01*
X116806146Y-65516213D01*
X116806145Y-65516216D01*
X116778156Y-65606357D01*
X116737225Y-65738176D01*
X116736534Y-65743386D01*
X116736534Y-65743388D01*
X116708487Y-65954998D01*
X116705996Y-65973789D01*
X111445926Y-65973789D01*
X111460275Y-65965753D01*
X111484442Y-65952219D01*
X111584858Y-65868705D01*
X111642645Y-65820644D01*
X111647012Y-65817012D01*
X111650644Y-65812645D01*
X111778584Y-65658813D01*
X111778585Y-65658811D01*
X111782219Y-65654442D01*
X111865067Y-65506507D01*
X111882756Y-65474922D01*
X111882759Y-65474916D01*
X111885537Y-65469955D01*
X111916009Y-65380189D01*
X111951675Y-65275118D01*
X111953504Y-65269730D01*
X111983846Y-65060470D01*
X111985429Y-65000000D01*
X111966081Y-64789440D01*
X111908686Y-64585931D01*
X111815165Y-64396290D01*
X111688651Y-64226867D01*
X111684481Y-64223012D01*
X111684478Y-64223009D01*
X111620319Y-64163702D01*
X111533381Y-64083337D01*
X111479366Y-64049256D01*
X111359363Y-63973539D01*
X111359361Y-63973538D01*
X111354554Y-63970505D01*
X111158160Y-63892152D01*
X111152579Y-63891042D01*
X111152576Y-63891041D01*
X111054467Y-63871526D01*
X110950775Y-63850901D01*
X110945088Y-63850827D01*
X110945083Y-63850826D01*
X110745034Y-63848207D01*
X110745029Y-63848207D01*
X110739346Y-63848133D01*
X110733742Y-63849096D01*
X110733741Y-63849096D01*
X110536550Y-63882979D01*
X110536547Y-63882980D01*
X110530953Y-63883941D01*
X110332575Y-63957127D01*
X110327697Y-63960029D01*
X110327695Y-63960030D01*
X110155740Y-64062332D01*
X110155737Y-64062334D01*
X110150856Y-64065238D01*
X109991881Y-64204655D01*
X109988362Y-64209119D01*
X109988359Y-64209122D01*
X109970782Y-64231419D01*
X109860976Y-64370708D01*
X109762523Y-64557836D01*
X109760837Y-64563267D01*
X109760835Y-64563271D01*
X109723959Y-64682032D01*
X109699820Y-64759773D01*
X109682851Y-64903140D01*
X109655425Y-64967398D01*
X109600974Y-65004346D01*
X109520225Y-65004346D01*
X109520667Y-65004063D01*
X109468057Y-64972081D01*
X109437453Y-64909271D01*
X109436232Y-64899909D01*
X109426601Y-64795100D01*
X109426081Y-64789440D01*
X109368686Y-64585931D01*
X109275165Y-64396290D01*
X109148651Y-64226867D01*
X109144481Y-64223012D01*
X109144478Y-64223009D01*
X109080319Y-64163702D01*
X108993381Y-64083337D01*
X108939366Y-64049256D01*
X108819363Y-63973539D01*
X108819361Y-63973538D01*
X108814554Y-63970505D01*
X108618160Y-63892152D01*
X108612579Y-63891042D01*
X108612576Y-63891041D01*
X108514467Y-63871526D01*
X108410775Y-63850901D01*
X108405088Y-63850827D01*
X108405083Y-63850826D01*
X108205034Y-63848207D01*
X108205029Y-63848207D01*
X108199346Y-63848133D01*
X108193742Y-63849096D01*
X108193741Y-63849096D01*
X107996550Y-63882979D01*
X107996547Y-63882980D01*
X107990953Y-63883941D01*
X107792575Y-63957127D01*
X107787697Y-63960029D01*
X107787695Y-63960030D01*
X107615740Y-64062332D01*
X107615737Y-64062334D01*
X107610856Y-64065238D01*
X107451881Y-64204655D01*
X107448362Y-64209119D01*
X107448359Y-64209122D01*
X107430782Y-64231419D01*
X107320976Y-64370708D01*
X107222523Y-64557836D01*
X107220837Y-64563267D01*
X107220835Y-64563271D01*
X107183959Y-64682032D01*
X107159820Y-64759773D01*
X107142851Y-64903140D01*
X107115425Y-64967398D01*
X107060974Y-65004346D01*
X106980225Y-65004346D01*
X106980667Y-65004063D01*
X106928057Y-64972081D01*
X106897453Y-64909271D01*
X106896232Y-64899909D01*
X106886601Y-64795100D01*
X106886081Y-64789440D01*
X106828686Y-64585931D01*
X106735165Y-64396290D01*
X106608651Y-64226867D01*
X106604481Y-64223012D01*
X106604478Y-64223009D01*
X106540319Y-64163702D01*
X106453381Y-64083337D01*
X106399366Y-64049256D01*
X106279363Y-63973539D01*
X106279361Y-63973538D01*
X106274554Y-63970505D01*
X106078160Y-63892152D01*
X106072579Y-63891042D01*
X106072576Y-63891041D01*
X105974467Y-63871526D01*
X105870775Y-63850901D01*
X105865088Y-63850827D01*
X105865083Y-63850826D01*
X105665034Y-63848207D01*
X105665029Y-63848207D01*
X105659346Y-63848133D01*
X105653742Y-63849096D01*
X105653741Y-63849096D01*
X105456550Y-63882979D01*
X105456547Y-63882980D01*
X105450953Y-63883941D01*
X105252575Y-63957127D01*
X105247697Y-63960029D01*
X105247695Y-63960030D01*
X105075740Y-64062332D01*
X105075737Y-64062334D01*
X105070856Y-64065238D01*
X104911881Y-64204655D01*
X104781377Y-64370199D01*
X104724417Y-64410658D01*
X104654623Y-64413900D01*
X104594155Y-64378893D01*
X104562213Y-64316753D01*
X104560000Y-64293430D01*
X104560000Y-64106028D01*
X104559637Y-64099331D01*
X104554197Y-64049256D01*
X104550629Y-64034247D01*
X104506183Y-63915689D01*
X104497788Y-63900354D01*
X104422484Y-63799876D01*
X104410124Y-63787516D01*
X104309646Y-63712212D01*
X104294311Y-63703817D01*
X104175753Y-63659371D01*
X104160744Y-63655803D01*
X104110669Y-63650363D01*
X104103972Y-63650000D01*
X103477830Y-63650000D01*
X103462831Y-63654404D01*
X103461644Y-63655774D01*
X103460000Y-63663332D01*
X103460000Y-66332170D01*
X102960000Y-66332170D01*
X102960000Y-65267830D01*
X102955596Y-65252831D01*
X102954226Y-65251644D01*
X102946668Y-65250000D01*
X101877830Y-65250000D01*
X101862831Y-65254404D01*
X101861644Y-65255774D01*
X101860000Y-65263332D01*
X101860000Y-65893972D01*
X98464477Y-65893972D01*
X98494858Y-65868705D01*
X98552645Y-65820644D01*
X98557012Y-65817012D01*
X98560644Y-65812645D01*
X98688584Y-65658813D01*
X98688585Y-65658811D01*
X98692219Y-65654442D01*
X98775067Y-65506507D01*
X98792756Y-65474922D01*
X98792759Y-65474916D01*
X98795537Y-65469955D01*
X98826009Y-65380189D01*
X98861675Y-65275118D01*
X98863504Y-65269730D01*
X98893846Y-65060470D01*
X98895429Y-65000000D01*
X98876081Y-64789440D01*
X98859929Y-64732170D01*
X101860000Y-64732170D01*
X101864404Y-64747169D01*
X101865774Y-64748356D01*
X101873332Y-64750000D01*
X102942170Y-64750000D01*
X102957169Y-64745596D01*
X102958356Y-64744226D01*
X102960000Y-64736668D01*
X102960000Y-63667830D01*
X102955596Y-63652831D01*
X102954226Y-63651644D01*
X102946668Y-63650000D01*
X102316028Y-63650000D01*
X102309331Y-63650363D01*
X102259256Y-63655803D01*
X102244247Y-63659371D01*
X102125689Y-63703817D01*
X102110354Y-63712212D01*
X102009876Y-63787516D01*
X101997516Y-63799876D01*
X101922212Y-63900354D01*
X101913817Y-63915689D01*
X101869371Y-64034247D01*
X101865803Y-64049256D01*
X101860363Y-64099331D01*
X101860000Y-64106028D01*
X101860000Y-64732170D01*
X98859929Y-64732170D01*
X98818686Y-64585931D01*
X98725165Y-64396290D01*
X98598651Y-64226867D01*
X98594481Y-64223012D01*
X98594478Y-64223009D01*
X98530319Y-64163702D01*
X98443381Y-64083337D01*
X98389366Y-64049256D01*
X98269363Y-63973539D01*
X98269361Y-63973538D01*
X98264554Y-63970505D01*
X98068160Y-63892152D01*
X98062579Y-63891042D01*
X98062576Y-63891041D01*
X97964467Y-63871526D01*
X97860775Y-63850901D01*
X97855088Y-63850827D01*
X97855083Y-63850826D01*
X97655034Y-63848207D01*
X97655029Y-63848207D01*
X97649346Y-63848133D01*
X97643742Y-63849096D01*
X97643741Y-63849096D01*
X97446550Y-63882979D01*
X97446547Y-63882980D01*
X97440953Y-63883941D01*
X97242575Y-63957127D01*
X97237697Y-63960029D01*
X97237695Y-63960030D01*
X97065740Y-64062332D01*
X97065737Y-64062334D01*
X97060856Y-64065238D01*
X96901881Y-64204655D01*
X96898362Y-64209119D01*
X96898359Y-64209122D01*
X96880782Y-64231419D01*
X96770976Y-64370708D01*
X96672523Y-64557836D01*
X96670837Y-64563267D01*
X96670835Y-64563271D01*
X96633959Y-64682032D01*
X96609820Y-64759773D01*
X96592851Y-64903140D01*
X96565425Y-64967398D01*
X96510974Y-65004346D01*
X96430225Y-65004346D01*
X96430667Y-65004063D01*
X96378057Y-64972081D01*
X96347453Y-64909271D01*
X96346232Y-64899909D01*
X96336601Y-64795100D01*
X96336081Y-64789440D01*
X96278686Y-64585931D01*
X96185165Y-64396290D01*
X96058651Y-64226867D01*
X96054481Y-64223012D01*
X96054478Y-64223009D01*
X95990319Y-64163702D01*
X95903381Y-64083337D01*
X95849366Y-64049256D01*
X95729363Y-63973539D01*
X95729361Y-63973538D01*
X95724554Y-63970505D01*
X95528160Y-63892152D01*
X95522579Y-63891042D01*
X95522576Y-63891041D01*
X95424467Y-63871526D01*
X95320775Y-63850901D01*
X95315088Y-63850827D01*
X95315083Y-63850826D01*
X95115034Y-63848207D01*
X95115029Y-63848207D01*
X95109346Y-63848133D01*
X95103742Y-63849096D01*
X95103741Y-63849096D01*
X94906550Y-63882979D01*
X94906547Y-63882980D01*
X94900953Y-63883941D01*
X94702575Y-63957127D01*
X94697697Y-63960029D01*
X94697695Y-63960030D01*
X94525740Y-64062332D01*
X94525737Y-64062334D01*
X94520856Y-64065238D01*
X94361881Y-64204655D01*
X94358362Y-64209119D01*
X94358359Y-64209122D01*
X94340782Y-64231419D01*
X94230976Y-64370708D01*
X94132523Y-64557836D01*
X94130837Y-64563267D01*
X94130835Y-64563271D01*
X94093959Y-64682032D01*
X94069820Y-64759773D01*
X94052851Y-64903140D01*
X94025425Y-64967398D01*
X93970974Y-65004346D01*
X93890225Y-65004346D01*
X93890667Y-65004063D01*
X93838057Y-64972081D01*
X93807453Y-64909271D01*
X93806232Y-64899909D01*
X93796601Y-64795100D01*
X93796081Y-64789440D01*
X93738686Y-64585931D01*
X93645165Y-64396290D01*
X93518651Y-64226867D01*
X93514481Y-64223012D01*
X93514478Y-64223009D01*
X93450319Y-64163702D01*
X93363381Y-64083337D01*
X93309366Y-64049256D01*
X93189363Y-63973539D01*
X93189361Y-63973538D01*
X93184554Y-63970505D01*
X92988160Y-63892152D01*
X92982579Y-63891042D01*
X92982576Y-63891041D01*
X92884467Y-63871526D01*
X92780775Y-63850901D01*
X92775088Y-63850827D01*
X92775083Y-63850826D01*
X92575034Y-63848207D01*
X92575029Y-63848207D01*
X92569346Y-63848133D01*
X92563742Y-63849096D01*
X92563741Y-63849096D01*
X92366550Y-63882979D01*
X92366547Y-63882980D01*
X92360953Y-63883941D01*
X92162575Y-63957127D01*
X92157697Y-63960029D01*
X92157695Y-63960030D01*
X91985740Y-64062332D01*
X91985737Y-64062334D01*
X91980856Y-64065238D01*
X91821881Y-64204655D01*
X91691377Y-64370199D01*
X91634417Y-64410658D01*
X91564623Y-64413900D01*
X91504155Y-64378893D01*
X91472213Y-64316753D01*
X91470000Y-64293430D01*
X91470000Y-64106028D01*
X91469637Y-64099331D01*
X91464197Y-64049256D01*
X91460629Y-64034247D01*
X91416183Y-63915689D01*
X91407788Y-63900354D01*
X91332484Y-63799876D01*
X91320124Y-63787516D01*
X91219646Y-63712212D01*
X91204311Y-63703817D01*
X91085753Y-63659371D01*
X91070744Y-63655803D01*
X91020669Y-63650363D01*
X91013972Y-63650000D01*
X90387830Y-63650000D01*
X90372831Y-63654404D01*
X90371644Y-63655774D01*
X90370000Y-63663332D01*
X90370000Y-66332170D01*
X89870000Y-66332170D01*
X89870000Y-65267830D01*
X89865596Y-65252831D01*
X89864226Y-65251644D01*
X89856668Y-65250000D01*
X88787830Y-65250000D01*
X88772831Y-65254404D01*
X88771644Y-65255774D01*
X88770000Y-65263332D01*
X88770000Y-65893972D01*
X83946036Y-65893972D01*
X83945284Y-65873949D01*
X83945284Y-65873948D01*
X83945087Y-65868705D01*
X83933325Y-65812645D01*
X83897361Y-65641242D01*
X83897360Y-65641239D01*
X83896281Y-65636096D01*
X83884537Y-65606357D01*
X83830668Y-65469955D01*
X83808980Y-65415037D01*
X83741607Y-65304009D01*
X83688408Y-65216341D01*
X83685681Y-65211847D01*
X83529910Y-65032336D01*
X83346120Y-64881638D01*
X83228687Y-64814791D01*
X83144125Y-64766655D01*
X83144120Y-64766653D01*
X83139567Y-64764061D01*
X83051710Y-64732170D01*
X88770000Y-64732170D01*
X88774404Y-64747169D01*
X88775774Y-64748356D01*
X88783332Y-64750000D01*
X89852170Y-64750000D01*
X89867169Y-64745596D01*
X89868356Y-64744226D01*
X89870000Y-64736668D01*
X89870000Y-63667830D01*
X89865596Y-63652831D01*
X89864226Y-63651644D01*
X89856668Y-63650000D01*
X89226028Y-63650000D01*
X89219331Y-63650363D01*
X89169256Y-63655803D01*
X89154247Y-63659371D01*
X89035689Y-63703817D01*
X89020354Y-63712212D01*
X88919876Y-63787516D01*
X88907516Y-63799876D01*
X88832212Y-63900354D01*
X88823817Y-63915689D01*
X88779371Y-64034247D01*
X88775803Y-64049256D01*
X88770363Y-64099331D01*
X88770000Y-64106028D01*
X88770000Y-64732170D01*
X83051710Y-64732170D01*
X82916156Y-64682966D01*
X82682275Y-64640674D01*
X82657381Y-64639500D01*
X82490320Y-64639500D01*
X82487704Y-64639722D01*
X82487703Y-64639722D01*
X82476484Y-64640674D01*
X82313177Y-64654531D01*
X82083126Y-64714240D01*
X81866424Y-64811857D01*
X81669268Y-64944591D01*
X81497295Y-65108645D01*
X81355421Y-65299330D01*
X81353042Y-65304008D01*
X81353042Y-65304009D01*
X81271412Y-65464565D01*
X81247705Y-65511193D01*
X81246146Y-65516213D01*
X81246145Y-65516216D01*
X81218156Y-65606357D01*
X81177225Y-65738176D01*
X81176534Y-65743386D01*
X81176534Y-65743388D01*
X81148487Y-65954998D01*
X81145996Y-65973789D01*
X79294000Y-65973789D01*
X79294000Y-62908000D01*
X79313685Y-62840961D01*
X79366489Y-62795206D01*
X79418000Y-62784000D01*
X120988000Y-62784000D01*
X121055039Y-62803685D01*
G37*
%TD.AperFunction*%
%TD*%
M02*
