%TF.GenerationSoftware,KiCad,Pcbnew,(6.0.1)*%
%TF.CreationDate,2022-02-23T01:52:35+01:00*%
%TF.ProjectId,stm32myPill,73746d33-326d-4795-9069-6c6c2e6b6963,rev?*%
%TF.SameCoordinates,Original*%
%TF.FileFunction,Paste,Top*%
%TF.FilePolarity,Positive*%
%FSLAX46Y46*%
G04 Gerber Fmt 4.6, Leading zero omitted, Abs format (unit mm)*
G04 Created by KiCad (PCBNEW (6.0.1)) date 2022-02-23 01:52:35*
%MOMM*%
%LPD*%
G01*
G04 APERTURE LIST*
G04 Aperture macros list*
%AMRoundRect*
0 Rectangle with rounded corners*
0 $1 Rounding radius*
0 $2 $3 $4 $5 $6 $7 $8 $9 X,Y pos of 4 corners*
0 Add a 4 corners polygon primitive as box body*
4,1,4,$2,$3,$4,$5,$6,$7,$8,$9,$2,$3,0*
0 Add four circle primitives for the rounded corners*
1,1,$1+$1,$2,$3*
1,1,$1+$1,$4,$5*
1,1,$1+$1,$6,$7*
1,1,$1+$1,$8,$9*
0 Add four rect primitives between the rounded corners*
20,1,$1+$1,$2,$3,$4,$5,0*
20,1,$1+$1,$4,$5,$6,$7,0*
20,1,$1+$1,$6,$7,$8,$9,0*
20,1,$1+$1,$8,$9,$2,$3,0*%
G04 Aperture macros list end*
%ADD10R,1.500000X2.000000*%
%ADD11R,3.800000X2.000000*%
%ADD12RoundRect,0.140000X0.140000X0.170000X-0.140000X0.170000X-0.140000X-0.170000X0.140000X-0.170000X0*%
%ADD13R,1.300000X0.450000*%
%ADD14RoundRect,0.140000X0.170000X-0.140000X0.170000X0.140000X-0.170000X0.140000X-0.170000X-0.140000X0*%
%ADD15RoundRect,0.140000X-0.140000X-0.170000X0.140000X-0.170000X0.140000X0.170000X-0.140000X0.170000X0*%
%ADD16R,0.800000X1.000000*%
%ADD17R,1.500000X0.700000*%
%ADD18RoundRect,0.250000X0.475000X-0.250000X0.475000X0.250000X-0.475000X0.250000X-0.475000X-0.250000X0*%
%ADD19RoundRect,0.218750X-0.256250X0.218750X-0.256250X-0.218750X0.256250X-0.218750X0.256250X0.218750X0*%
%ADD20RoundRect,0.075000X-0.662500X-0.075000X0.662500X-0.075000X0.662500X0.075000X-0.662500X0.075000X0*%
%ADD21RoundRect,0.075000X-0.075000X-0.662500X0.075000X-0.662500X0.075000X0.662500X-0.075000X0.662500X0*%
%ADD22RoundRect,0.135000X-0.185000X0.135000X-0.185000X-0.135000X0.185000X-0.135000X0.185000X0.135000X0*%
%ADD23RoundRect,0.250000X-0.250000X-0.475000X0.250000X-0.475000X0.250000X0.475000X-0.250000X0.475000X0*%
%ADD24RoundRect,0.135000X0.135000X0.185000X-0.135000X0.185000X-0.135000X-0.185000X0.135000X-0.185000X0*%
%ADD25RoundRect,0.225000X-0.225000X-0.250000X0.225000X-0.250000X0.225000X0.250000X-0.225000X0.250000X0*%
%ADD26R,1.200000X1.400000*%
%ADD27RoundRect,0.135000X0.185000X-0.135000X0.185000X0.135000X-0.185000X0.135000X-0.185000X-0.135000X0*%
%ADD28RoundRect,0.140000X-0.170000X0.140000X-0.170000X-0.140000X0.170000X-0.140000X0.170000X0.140000X0*%
%ADD29RoundRect,0.135000X-0.135000X-0.185000X0.135000X-0.185000X0.135000X0.185000X-0.135000X0.185000X0*%
G04 APERTURE END LIST*
D10*
%TO.C,U1*%
X109996000Y-85750000D03*
X107696000Y-85750000D03*
D11*
X107696000Y-92050000D03*
D10*
X105396000Y-85750000D03*
%TD*%
D12*
%TO.C,C6*%
X101480000Y-86106000D03*
X100520000Y-86106000D03*
%TD*%
D13*
%TO.C,J1*%
X115245000Y-80045000D03*
X115245000Y-79395000D03*
X115245000Y-78745000D03*
X115245000Y-78095000D03*
X115245000Y-77445000D03*
%TD*%
D14*
%TO.C,C4*%
X91948000Y-77216000D03*
X91948000Y-76256000D03*
%TD*%
D15*
%TO.C,C11*%
X95278000Y-86106000D03*
X96238000Y-86106000D03*
%TD*%
D16*
%TO.C,SW1*%
X82154000Y-77310000D03*
X79944000Y-77310000D03*
X79944000Y-70010000D03*
X82154000Y-70010000D03*
D17*
X82804000Y-71410000D03*
X82804000Y-74410000D03*
X82804000Y-75910000D03*
%TD*%
D12*
%TO.C,C9*%
X90142000Y-84328000D03*
X89182000Y-84328000D03*
%TD*%
D18*
%TO.C,C2*%
X112776000Y-91120000D03*
X112776000Y-89220000D03*
%TD*%
D19*
%TO.C,D1*%
X115200000Y-89612500D03*
X115200000Y-91187500D03*
%TD*%
D12*
%TO.C,C10*%
X90142000Y-85852000D03*
X89182000Y-85852000D03*
%TD*%
D20*
%TO.C,U2*%
X93837500Y-77250000D03*
X93837500Y-77750000D03*
X93837500Y-78250000D03*
X93837500Y-78750000D03*
X93837500Y-79250000D03*
X93837500Y-79750000D03*
X93837500Y-80250000D03*
X93837500Y-80750000D03*
X93837500Y-81250000D03*
X93837500Y-81750000D03*
X93837500Y-82250000D03*
X93837500Y-82750000D03*
D21*
X95250000Y-84162500D03*
X95750000Y-84162500D03*
X96250000Y-84162500D03*
X96750000Y-84162500D03*
X97250000Y-84162500D03*
X97750000Y-84162500D03*
X98250000Y-84162500D03*
X98750000Y-84162500D03*
X99250000Y-84162500D03*
X99750000Y-84162500D03*
X100250000Y-84162500D03*
X100750000Y-84162500D03*
D20*
X102162500Y-82750000D03*
X102162500Y-82250000D03*
X102162500Y-81750000D03*
X102162500Y-81250000D03*
X102162500Y-80750000D03*
X102162500Y-80250000D03*
X102162500Y-79750000D03*
X102162500Y-79250000D03*
X102162500Y-78750000D03*
X102162500Y-78250000D03*
X102162500Y-77750000D03*
X102162500Y-77250000D03*
D21*
X100750000Y-75837500D03*
X100250000Y-75837500D03*
X99750000Y-75837500D03*
X99250000Y-75837500D03*
X98750000Y-75837500D03*
X98250000Y-75837500D03*
X97750000Y-75837500D03*
X97250000Y-75837500D03*
X96750000Y-75837500D03*
X96250000Y-75837500D03*
X95750000Y-75837500D03*
X95250000Y-75837500D03*
%TD*%
D22*
%TO.C,R3*%
X108800000Y-77630000D03*
X108800000Y-78650000D03*
%TD*%
D23*
%TO.C,C1*%
X105476000Y-82550000D03*
X107376000Y-82550000D03*
%TD*%
D14*
%TO.C,C12*%
X89194000Y-78138000D03*
X89194000Y-77178000D03*
%TD*%
D24*
%TO.C,R1*%
X116200000Y-86360000D03*
X115180000Y-86360000D03*
%TD*%
D25*
%TO.C,C3*%
X94800000Y-71882000D03*
X96350000Y-71882000D03*
%TD*%
D26*
%TO.C,Y1*%
X85550000Y-77800000D03*
X85550000Y-80000000D03*
X87250000Y-80000000D03*
X87250000Y-77800000D03*
%TD*%
D27*
%TO.C,R2*%
X85000000Y-73420000D03*
X85000000Y-72400000D03*
%TD*%
D24*
%TO.C,R4*%
X96224000Y-90416000D03*
X95204000Y-90416000D03*
%TD*%
D14*
%TO.C,C8*%
X91694000Y-81480000D03*
X91694000Y-80520000D03*
%TD*%
D28*
%TO.C,C7*%
X104140000Y-77020000D03*
X104140000Y-77980000D03*
%TD*%
D19*
%TO.C,FB1*%
X91694000Y-84302500D03*
X91694000Y-85877500D03*
%TD*%
D29*
%TO.C,R5*%
X97490000Y-90416000D03*
X98510000Y-90416000D03*
%TD*%
D14*
%TO.C,C13*%
X89194000Y-80396000D03*
X89194000Y-79436000D03*
%TD*%
D15*
%TO.C,C5*%
X95250000Y-73914000D03*
X96210000Y-73914000D03*
%TD*%
M02*
