%TF.GenerationSoftware,KiCad,Pcbnew,(6.0.1)*%
%TF.CreationDate,2022-02-23T01:52:36+01:00*%
%TF.ProjectId,stm32myPill,73746d33-326d-4795-9069-6c6c2e6b6963,rev?*%
%TF.SameCoordinates,Original*%
%TF.FileFunction,Legend,Bot*%
%TF.FilePolarity,Positive*%
%FSLAX46Y46*%
G04 Gerber Fmt 4.6, Leading zero omitted, Abs format (unit mm)*
G04 Created by KiCad (PCBNEW (6.0.1)) date 2022-02-23 01:52:36*
%MOMM*%
%LPD*%
G01*
G04 APERTURE LIST*
%ADD10C,0.150000*%
%ADD11C,0.200000*%
G04 APERTURE END LIST*
D10*
X102261904Y-92000000D02*
X102357142Y-91952380D01*
X102500000Y-91952380D01*
X102642857Y-92000000D01*
X102738095Y-92095238D01*
X102785714Y-92190476D01*
X102833333Y-92380952D01*
X102833333Y-92523809D01*
X102785714Y-92714285D01*
X102738095Y-92809523D01*
X102642857Y-92904761D01*
X102500000Y-92952380D01*
X102404761Y-92952380D01*
X102261904Y-92904761D01*
X102214285Y-92857142D01*
X102214285Y-92523809D01*
X102404761Y-92523809D01*
X101785714Y-92952380D02*
X101785714Y-91952380D01*
X101214285Y-92952380D01*
X101214285Y-91952380D01*
X100738095Y-92952380D02*
X100738095Y-91952380D01*
X100500000Y-91952380D01*
X100357142Y-92000000D01*
X100261904Y-92095238D01*
X100214285Y-92190476D01*
X100166666Y-92380952D01*
X100166666Y-92523809D01*
X100214285Y-92714285D01*
X100261904Y-92809523D01*
X100357142Y-92904761D01*
X100500000Y-92952380D01*
X100738095Y-92952380D01*
X96490476Y-92904761D02*
X96347619Y-92952380D01*
X96109523Y-92952380D01*
X96014285Y-92904761D01*
X95966666Y-92857142D01*
X95919047Y-92761904D01*
X95919047Y-92666666D01*
X95966666Y-92571428D01*
X96014285Y-92523809D01*
X96109523Y-92476190D01*
X96300000Y-92428571D01*
X96395238Y-92380952D01*
X96442857Y-92333333D01*
X96490476Y-92238095D01*
X96490476Y-92142857D01*
X96442857Y-92047619D01*
X96395238Y-92000000D01*
X96300000Y-91952380D01*
X96061904Y-91952380D01*
X95919047Y-92000000D01*
X94919047Y-92857142D02*
X94966666Y-92904761D01*
X95109523Y-92952380D01*
X95204761Y-92952380D01*
X95347619Y-92904761D01*
X95442857Y-92809523D01*
X95490476Y-92714285D01*
X95538095Y-92523809D01*
X95538095Y-92380952D01*
X95490476Y-92190476D01*
X95442857Y-92095238D01*
X95347619Y-92000000D01*
X95204761Y-91952380D01*
X95109523Y-91952380D01*
X94966666Y-92000000D01*
X94919047Y-92047619D01*
X94014285Y-92952380D02*
X94490476Y-92952380D01*
X94490476Y-91952380D01*
X96261904Y-67052380D02*
X95690476Y-67052380D01*
X95976190Y-68052380D02*
X95976190Y-67052380D01*
X95452380Y-67052380D02*
X94785714Y-68052380D01*
X94785714Y-67052380D02*
X95452380Y-68052380D01*
X103661904Y-67000000D02*
X103757142Y-66952380D01*
X103900000Y-66952380D01*
X104042857Y-67000000D01*
X104138095Y-67095238D01*
X104185714Y-67190476D01*
X104233333Y-67380952D01*
X104233333Y-67523809D01*
X104185714Y-67714285D01*
X104138095Y-67809523D01*
X104042857Y-67904761D01*
X103900000Y-67952380D01*
X103804761Y-67952380D01*
X103661904Y-67904761D01*
X103614285Y-67857142D01*
X103614285Y-67523809D01*
X103804761Y-67523809D01*
X103185714Y-67952380D02*
X103185714Y-66952380D01*
X102614285Y-67952380D01*
X102614285Y-66952380D01*
X102138095Y-67952380D02*
X102138095Y-66952380D01*
X101900000Y-66952380D01*
X101757142Y-67000000D01*
X101661904Y-67095238D01*
X101614285Y-67190476D01*
X101566666Y-67380952D01*
X101566666Y-67523809D01*
X101614285Y-67714285D01*
X101661904Y-67809523D01*
X101757142Y-67904761D01*
X101900000Y-67952380D01*
X102138095Y-67952380D01*
X90561904Y-67100000D02*
X90657142Y-67052380D01*
X90800000Y-67052380D01*
X90942857Y-67100000D01*
X91038095Y-67195238D01*
X91085714Y-67290476D01*
X91133333Y-67480952D01*
X91133333Y-67623809D01*
X91085714Y-67814285D01*
X91038095Y-67909523D01*
X90942857Y-68004761D01*
X90800000Y-68052380D01*
X90704761Y-68052380D01*
X90561904Y-68004761D01*
X90514285Y-67957142D01*
X90514285Y-67623809D01*
X90704761Y-67623809D01*
X90085714Y-68052380D02*
X90085714Y-67052380D01*
X89514285Y-68052380D01*
X89514285Y-67052380D01*
X89038095Y-68052380D02*
X89038095Y-67052380D01*
X88800000Y-67052380D01*
X88657142Y-67100000D01*
X88561904Y-67195238D01*
X88514285Y-67290476D01*
X88466666Y-67480952D01*
X88466666Y-67623809D01*
X88514285Y-67814285D01*
X88561904Y-67909523D01*
X88657142Y-68004761D01*
X88800000Y-68052380D01*
X89038095Y-68052380D01*
X99614285Y-92904761D02*
X99471428Y-92952380D01*
X99233333Y-92952380D01*
X99138095Y-92904761D01*
X99090476Y-92857142D01*
X99042857Y-92761904D01*
X99042857Y-92666666D01*
X99090476Y-92571428D01*
X99138095Y-92523809D01*
X99233333Y-92476190D01*
X99423809Y-92428571D01*
X99519047Y-92380952D01*
X99566666Y-92333333D01*
X99614285Y-92238095D01*
X99614285Y-92142857D01*
X99566666Y-92047619D01*
X99519047Y-92000000D01*
X99423809Y-91952380D01*
X99185714Y-91952380D01*
X99042857Y-92000000D01*
X98614285Y-92952380D02*
X98614285Y-91952380D01*
X98376190Y-91952380D01*
X98233333Y-92000000D01*
X98138095Y-92095238D01*
X98090476Y-92190476D01*
X98042857Y-92380952D01*
X98042857Y-92523809D01*
X98090476Y-92714285D01*
X98138095Y-92809523D01*
X98233333Y-92904761D01*
X98376190Y-92952380D01*
X98614285Y-92952380D01*
X97661904Y-92666666D02*
X97185714Y-92666666D01*
X97757142Y-92952380D02*
X97423809Y-91952380D01*
X97090476Y-92952380D01*
X106495238Y-67857142D02*
X106542857Y-67904761D01*
X106685714Y-67952380D01*
X106780952Y-67952380D01*
X106923809Y-67904761D01*
X107019047Y-67809523D01*
X107066666Y-67714285D01*
X107114285Y-67523809D01*
X107114285Y-67380952D01*
X107066666Y-67190476D01*
X107019047Y-67095238D01*
X106923809Y-67000000D01*
X106780952Y-66952380D01*
X106685714Y-66952380D01*
X106542857Y-67000000D01*
X106495238Y-67047619D01*
X105590476Y-67952380D02*
X106066666Y-67952380D01*
X106066666Y-66952380D01*
X105257142Y-67952380D02*
X105257142Y-66952380D01*
X104685714Y-67952380D02*
X105114285Y-67380952D01*
X104685714Y-66952380D02*
X105257142Y-67523809D01*
X109723809Y-67952380D02*
X109723809Y-66952380D01*
X109485714Y-66952380D01*
X109342857Y-67000000D01*
X109247619Y-67095238D01*
X109200000Y-67190476D01*
X109152380Y-67380952D01*
X109152380Y-67523809D01*
X109200000Y-67714285D01*
X109247619Y-67809523D01*
X109342857Y-67904761D01*
X109485714Y-67952380D01*
X109723809Y-67952380D01*
X108723809Y-67952380D02*
X108723809Y-66952380D01*
X108057142Y-66952380D02*
X107866666Y-66952380D01*
X107771428Y-67000000D01*
X107676190Y-67095238D01*
X107628571Y-67285714D01*
X107628571Y-67619047D01*
X107676190Y-67809523D01*
X107771428Y-67904761D01*
X107866666Y-67952380D01*
X108057142Y-67952380D01*
X108152380Y-67904761D01*
X108247619Y-67809523D01*
X108295238Y-67619047D01*
X108295238Y-67285714D01*
X108247619Y-67095238D01*
X108152380Y-67000000D01*
X108057142Y-66952380D01*
X92866666Y-68052380D02*
X93200000Y-67576190D01*
X93438095Y-68052380D02*
X93438095Y-67052380D01*
X93057142Y-67052380D01*
X92961904Y-67100000D01*
X92914285Y-67147619D01*
X92866666Y-67242857D01*
X92866666Y-67385714D01*
X92914285Y-67480952D01*
X92961904Y-67528571D01*
X93057142Y-67576190D01*
X93438095Y-67576190D01*
X92533333Y-67052380D02*
X91866666Y-68052380D01*
X91866666Y-67052380D02*
X92533333Y-68052380D01*
D11*
X113004761Y-90802976D02*
X112588095Y-92052976D01*
X112171428Y-90802976D01*
X111516666Y-90802976D02*
X111397619Y-90802976D01*
X111278571Y-90862500D01*
X111219047Y-90922023D01*
X111159523Y-91041071D01*
X111100000Y-91279166D01*
X111100000Y-91576785D01*
X111159523Y-91814880D01*
X111219047Y-91933928D01*
X111278571Y-91993452D01*
X111397619Y-92052976D01*
X111516666Y-92052976D01*
X111635714Y-91993452D01*
X111695238Y-91933928D01*
X111754761Y-91814880D01*
X111814285Y-91576785D01*
X111814285Y-91279166D01*
X111754761Y-91041071D01*
X111695238Y-90922023D01*
X111635714Y-90862500D01*
X111516666Y-90802976D01*
X110564285Y-91933928D02*
X110504761Y-91993452D01*
X110564285Y-92052976D01*
X110623809Y-91993452D01*
X110564285Y-91933928D01*
X110564285Y-92052976D01*
X109314285Y-92052976D02*
X110028571Y-92052976D01*
X109671428Y-92052976D02*
X109671428Y-90802976D01*
X109790476Y-90981547D01*
X109909523Y-91100595D01*
X110028571Y-91160119D01*
X113600000Y-92815476D02*
X113480952Y-92815476D01*
X113361904Y-92875000D01*
X113302380Y-92934523D01*
X113242857Y-93053571D01*
X113183333Y-93291666D01*
X113183333Y-93589285D01*
X113242857Y-93827380D01*
X113302380Y-93946428D01*
X113361904Y-94005952D01*
X113480952Y-94065476D01*
X113600000Y-94065476D01*
X113719047Y-94005952D01*
X113778571Y-93946428D01*
X113838095Y-93827380D01*
X113897619Y-93589285D01*
X113897619Y-93291666D01*
X113838095Y-93053571D01*
X113778571Y-92934523D01*
X113719047Y-92875000D01*
X113600000Y-92815476D01*
X112707142Y-92934523D02*
X112647619Y-92875000D01*
X112528571Y-92815476D01*
X112230952Y-92815476D01*
X112111904Y-92875000D01*
X112052380Y-92934523D01*
X111992857Y-93053571D01*
X111992857Y-93172619D01*
X112052380Y-93351190D01*
X112766666Y-94065476D01*
X111992857Y-94065476D01*
X110564285Y-92755952D02*
X111635714Y-94363095D01*
X110207142Y-92934523D02*
X110147619Y-92875000D01*
X110028571Y-92815476D01*
X109730952Y-92815476D01*
X109611904Y-92875000D01*
X109552380Y-92934523D01*
X109492857Y-93053571D01*
X109492857Y-93172619D01*
X109552380Y-93351190D01*
X110266666Y-94065476D01*
X109492857Y-94065476D01*
X109016666Y-92934523D02*
X108957142Y-92875000D01*
X108838095Y-92815476D01*
X108540476Y-92815476D01*
X108421428Y-92875000D01*
X108361904Y-92934523D01*
X108302380Y-93053571D01*
X108302380Y-93172619D01*
X108361904Y-93351190D01*
X109076190Y-94065476D01*
X108302380Y-94065476D01*
X115326190Y-96018452D02*
X115147619Y-96077976D01*
X114850000Y-96077976D01*
X114730952Y-96018452D01*
X114671428Y-95958928D01*
X114611904Y-95839880D01*
X114611904Y-95720833D01*
X114671428Y-95601785D01*
X114730952Y-95542261D01*
X114850000Y-95482738D01*
X115088095Y-95423214D01*
X115207142Y-95363690D01*
X115266666Y-95304166D01*
X115326190Y-95185119D01*
X115326190Y-95066071D01*
X115266666Y-94947023D01*
X115207142Y-94887500D01*
X115088095Y-94827976D01*
X114790476Y-94827976D01*
X114611904Y-94887500D01*
X113540476Y-95244642D02*
X113540476Y-96077976D01*
X114076190Y-95244642D02*
X114076190Y-95899404D01*
X114016666Y-96018452D01*
X113897619Y-96077976D01*
X113719047Y-96077976D01*
X113600000Y-96018452D01*
X113540476Y-95958928D01*
X112945238Y-96077976D02*
X112945238Y-95244642D01*
X112945238Y-95482738D02*
X112885714Y-95363690D01*
X112826190Y-95304166D01*
X112707142Y-95244642D01*
X112588095Y-95244642D01*
X112171428Y-96077976D02*
X112171428Y-95244642D01*
X112171428Y-94827976D02*
X112230952Y-94887500D01*
X112171428Y-94947023D01*
X112111904Y-94887500D01*
X112171428Y-94827976D01*
X112171428Y-94947023D01*
X110028571Y-96077976D02*
X110623809Y-96077976D01*
X110623809Y-94827976D01*
X109076190Y-96077976D02*
X109076190Y-95423214D01*
X109135714Y-95304166D01*
X109254761Y-95244642D01*
X109492857Y-95244642D01*
X109611904Y-95304166D01*
X109076190Y-96018452D02*
X109195238Y-96077976D01*
X109492857Y-96077976D01*
X109611904Y-96018452D01*
X109671428Y-95899404D01*
X109671428Y-95780357D01*
X109611904Y-95661309D01*
X109492857Y-95601785D01*
X109195238Y-95601785D01*
X109076190Y-95542261D01*
X108480952Y-96077976D02*
X108480952Y-94827976D01*
X108480952Y-95304166D02*
X108361904Y-95244642D01*
X108123809Y-95244642D01*
X108004761Y-95304166D01*
X107945238Y-95363690D01*
X107885714Y-95482738D01*
X107885714Y-95839880D01*
X107945238Y-95958928D01*
X108004761Y-96018452D01*
X108123809Y-96077976D01*
X108361904Y-96077976D01*
X108480952Y-96018452D01*
X107409523Y-96018452D02*
X107290476Y-96077976D01*
X107052380Y-96077976D01*
X106933333Y-96018452D01*
X106873809Y-95899404D01*
X106873809Y-95839880D01*
X106933333Y-95720833D01*
X107052380Y-95661309D01*
X107230952Y-95661309D01*
X107350000Y-95601785D01*
X107409523Y-95482738D01*
X107409523Y-95423214D01*
X107350000Y-95304166D01*
X107230952Y-95244642D01*
X107052380Y-95244642D01*
X106933333Y-95304166D01*
M02*
